<svg width="126" height="18" viewBox="0 0 126 18" fill="none" xmlns="http://www.w3.org/2000/svg">
<path d="M0.5 13.1074V11.8249H5.30046V13.4561C5.29674 13.6704 5.34212 13.883 5.43353 14.0795C5.52494 14.2761 5.66026 14.452 5.8304 14.5955C6.00053 14.7389 6.20153 14.8466 6.41986 14.9113C6.63818 14.976 6.86878 14.9961 7.09612 14.9704C7.48449 15.0197 7.87848 14.9306 8.19995 14.7208C8.52143 14.5109 8.74691 14.1957 8.83169 13.8375C8.96022 13.4272 8.9493 12.9896 8.80044 12.5854C7.87136 10.3984 1.52283 9.40837 0.716345 5.99963C0.552152 5.25079 0.541954 4.47953 0.686297 3.72712C1.18149 0.99 3.75119 0 6.94107 0C9.48073 0 12.9807 0.5535 12.9807 4.22325V5.418H8.5216V4.3695C8.53506 4.16284 8.50056 3.95589 8.42048 3.76289C8.34039 3.56989 8.21661 3.3954 8.05765 3.25142C7.89868 3.10744 7.7083 2.99738 7.49959 2.9288C7.29087 2.86022 7.06876 2.83474 6.84853 2.85412C6.47245 2.81537 6.0946 2.91084 5.79046 3.12149C5.48632 3.33213 5.27828 3.64242 5.20791 3.99038C5.15779 4.2809 5.1684 4.57776 5.23916 4.8645C5.7644 6.81525 12.548 7.86488 13.292 11.3895C13.4779 12.303 13.4881 13.2402 13.3221 14.157C12.8882 16.9515 10.2247 18 7.00478 18C3.62498 18 0.5 16.8637 0.5 13.1074ZM58.6632 13.05V11.7675H63.4023V13.3695C63.3949 13.5819 63.4365 13.7933 63.5244 13.9892C63.6123 14.1852 63.7443 14.361 63.9115 14.5048C64.0787 14.6486 64.2771 14.7569 64.4931 14.8223C64.7091 14.8877 64.9377 14.9086 65.1631 14.8837C65.548 14.9375 65.9404 14.8533 66.2619 14.6481C66.5834 14.4429 66.8104 14.1317 66.8975 13.7768C67.026 13.376 67.0155 12.9475 66.8675 12.5528C65.9684 10.3984 59.6812 9.40275 58.8771 5.99963C58.7126 5.26072 58.702 4.49904 58.8459 3.75637C59.3447 1.0485 61.918 0.0585001 65.043 0.0585001C67.5526 0.0585001 71.0201 0.64125 71.0201 4.2525V5.418H66.5922V4.39875C66.6063 4.19463 66.5734 3.99005 66.4956 3.7989C66.4179 3.60774 66.2971 3.43448 66.1415 3.29086C65.9859 3.14724 65.7991 3.03662 65.5938 2.96651C65.3885 2.89639 65.1695 2.86843 64.9516 2.8845C64.5824 2.83867 64.2085 2.92831 63.9083 3.13465C63.6081 3.341 63.4049 3.64804 63.341 3.9915C63.2904 4.28194 63.3006 4.57883 63.3711 4.86562C63.8663 6.81637 70.5826 7.83675 71.3314 11.331C71.5171 12.2346 71.5273 13.1622 71.3614 14.0693C70.9275 16.866 68.2953 17.8853 65.1115 17.8853C61.7617 17.8875 58.6632 16.7479 58.6632 13.05ZM75.6355 13.6631C75.5923 13.2952 75.5823 12.9245 75.6054 12.555V0.495H80.127V12.9319C80.1212 13.146 80.1312 13.3603 80.1571 13.5731C80.258 13.9238 80.4796 14.2336 80.7876 14.4545C81.0956 14.6755 81.4728 14.7952 81.8608 14.7952C82.2488 14.7952 82.626 14.6755 82.934 14.4545C83.242 14.2336 83.4636 13.9238 83.5645 13.5731C83.5913 13.3604 83.6018 13.1461 83.5958 12.9319V0.495H88.1198V12.5528C88.1198 12.8734 88.0885 13.4854 88.0885 13.6609C87.7796 16.8109 85.1462 17.8234 81.8638 17.8234C78.5814 17.8234 75.9455 16.8053 75.6355 13.6609V13.6631ZM112.864 13.4876C112.818 13.1184 112.797 12.7467 112.801 12.375V5.301C112.801 5.00962 112.831 4.48538 112.862 4.19288C113.265 1.0485 115.96 0.0585001 119.15 0.0585001C122.31 0.0585001 125.096 1.0485 125.407 4.194C125.444 4.5623 125.454 4.93254 125.437 5.30213V5.85H120.915V4.923C120.916 4.70794 120.896 4.49327 120.854 4.28175C120.735 3.92664 120.498 3.61632 120.178 3.39599C119.857 3.17567 119.47 3.05685 119.073 3.05685C118.675 3.05685 118.288 3.17567 117.968 3.39599C117.647 3.61632 117.41 3.92664 117.292 4.28175C117.239 4.54122 117.219 4.80542 117.23 5.06925V12.7575C117.225 12.9717 117.235 13.1859 117.261 13.3988C117.369 13.7801 117.618 14.1131 117.964 14.3379C118.31 14.5627 118.73 14.6645 119.15 14.625C119.561 14.666 119.975 14.5642 120.312 14.3387C120.648 14.1133 120.885 13.78 120.977 13.4021C121.018 13.1907 121.029 12.975 121.008 12.7609V10.3106H119.181V7.86375H125.499V12.375C125.504 12.7449 125.483 13.1146 125.437 13.482C125.128 16.5397 122.312 17.6175 119.15 17.6175C115.987 17.6175 113.173 16.5431 112.864 13.4854V13.4876ZM49.8375 17.3003L49.7173 1.74713L46.6164 17.3003H42.0947L39.0275 1.74713L38.9073 17.3003H34.4445L34.8159 0.52425H42.0947L44.3556 13.6316L46.6164 0.52425H53.894L54.2966 17.3003H49.8375ZM26.0516 17.3003L23.6357 1.74713L21.1574 17.3003H16.3268L19.6105 0.52425H27.5708L30.8544 17.3003H26.0516ZM101.745 17.1259L97.2543 3.17475L97.5019 17.1248H93.1029V0.52425H99.7303L103.937 14.0389L103.695 0.52425H108.124V17.127L101.745 17.1259Z" fill="black"/>
</svg>
