<svg width="135" height="38" viewBox="0 0 135 38" fill="none" xmlns="http://www.w3.org/2000/svg">
<path fill-rule="evenodd" clip-rule="evenodd" d="M77.9186 11.8763C77.9088 11.8852 77.6663 11.9023 77.3798 11.9143C77.0932 11.9263 76.8472 11.9429 76.8329 11.951C76.8187 11.9592 76.6605 11.9771 76.4811 11.9908C76.3021 12.0045 76.1443 12.0227 76.1304 12.0312C76.1169 12.0397 75.9926 12.0568 75.8548 12.0692C75.1508 12.1322 74.0739 12.3768 73.453 12.6146C73.3126 12.6683 73.1683 12.7213 73.1325 12.7323C72.9831 12.7778 72.9696 12.8877 72.9448 14.26C72.9182 15.7315 72.9127 15.6961 73.1675 15.7274C73.2514 15.7377 73.4089 15.7138 73.5624 15.6673C74.1275 15.4964 74.3542 15.4335 74.9488 15.283C75.706 15.0914 76.5431 14.9116 77.0076 14.8408C77.8052 14.7191 79.6197 14.7423 79.9912 14.879C80.0645 14.906 80.246 14.9557 80.3948 14.9894C80.7054 15.06 80.9518 15.1766 81.2224 15.3812C81.4199 15.5309 81.5413 15.7523 81.6401 16.1426C81.7043 16.397 81.7091 16.4294 81.7346 16.8158L81.7586 17.178L81.4338 17.1512C80.1461 17.0452 78.6824 17.0024 78.0462 17.0524L77.0258 17.1326C75.9962 17.2136 74.7202 17.4803 74.083 17.7479C73.2452 18.0996 72.4388 18.7458 72.208 19.2501C71.7337 20.2869 71.6342 21.6134 71.9371 22.8511C72.0531 23.3238 72.1515 23.5909 72.3123 23.8672C72.368 23.9636 72.414 24.0582 72.414 24.0775C72.414 24.183 73.2685 24.9401 73.6903 25.2084C73.8004 25.2784 73.896 25.3483 73.9025 25.3638C73.9091 25.3792 73.9364 25.3918 73.963 25.3918C73.9897 25.3918 74.1235 25.4424 74.2605 25.5042C74.398 25.566 74.6415 25.655 74.8019 25.702C74.9623 25.749 75.1672 25.8123 75.2576 25.8427C75.3477 25.8731 75.6922 25.9443 76.0232 26.001C76.6229 26.1039 76.6291 26.1041 78.3018 26.1044C79.9912 26.1047 80.4378 26.0804 81.0361 25.9555C81.8698 25.7813 82.2512 25.6772 82.5672 25.5373C83.2297 25.2441 83.3977 25.1439 83.7306 24.8441C83.9424 24.6535 84.233 24.3532 84.327 24.2276C84.5017 23.9946 84.8801 23.2083 84.9544 22.9242C84.9964 22.7633 85.0456 22.6045 85.0638 22.5712C85.1389 22.4347 85.2676 21.5141 85.3059 20.8404C85.3347 20.3348 85.3318 18.419 85.3012 17.8792C85.2647 17.2274 85.1805 16.5817 85.0817 16.1976C84.9009 15.4935 84.7991 15.2064 84.5644 14.7366C83.973 13.5537 82.747 12.5792 81.3277 12.1641C81.0929 12.0954 80.6183 12.0058 80.2158 11.9542C80.1254 11.9426 80.0105 11.9254 79.9606 11.916C79.837 11.8927 77.9409 11.8559 77.9186 11.8763ZM94.3793 12.0894C93.8481 12.1164 93.7194 12.1312 93.1215 12.2342C92.5754 12.3283 92.2313 12.4235 91.8477 12.5868C91.5761 12.7023 91.4566 12.766 91.096 12.9874C91.057 13.0113 90.9243 13.0911 90.8011 13.1649C90.5393 13.3219 90.0519 13.8144 89.7332 14.2445C89.4813 14.5847 89.0384 15.4576 89.0384 15.6141C89.0384 15.6454 89.015 15.7163 88.9866 15.7716C88.8809 15.976 88.6742 16.9433 88.5987 17.5847C88.5305 18.1638 88.5232 18.3806 88.5378 19.4309C88.5593 20.9821 88.6319 21.4498 89.0467 22.7163C89.202 23.1916 89.4033 23.5557 89.7916 24.066C90.0533 24.4098 90.5798 24.9308 90.7883 25.0523C90.8783 25.1049 90.9604 25.1576 90.9706 25.1693C91.0045 25.2094 91.1339 25.2811 91.4627 25.4418C91.8153 25.6143 92.018 25.6873 92.4362 25.7925C92.5823 25.8293 92.7923 25.8844 92.9028 25.915C93.5178 26.085 94.4427 26.1506 96.0746 26.1399C97.1515 26.1328 97.3979 26.1206 97.788 26.0556C98.5857 25.9225 99.4293 25.6744 99.9025 25.4336C100.26 25.2516 100.43 25.1551 100.468 25.1131C100.488 25.0904 100.643 24.958 100.814 24.8188C101.2 24.5035 101.361 24.3505 101.361 24.2987C101.361 24.2766 101.375 24.2586 101.392 24.2586C101.423 24.2586 101.777 23.7512 101.779 23.704C101.779 23.6905 101.813 23.6412 101.853 23.5943C101.894 23.5475 101.96 23.4515 102.001 23.3812C102.094 23.2217 102.345 22.6031 102.345 22.5334C102.345 22.5051 102.36 22.4662 102.378 22.4471C102.473 22.3453 102.704 21.1128 102.786 20.2645C102.826 19.8517 102.815 17.9582 102.771 17.7513C102.761 17.701 102.742 17.5529 102.729 17.4223C102.634 16.4466 102.338 15.4129 101.992 14.8548C101.946 14.7798 101.908 14.7069 101.908 14.6928C101.908 14.6787 101.821 14.5509 101.714 14.4088C101.608 14.2666 101.473 14.0845 101.414 14.0041C101.355 13.9237 101.21 13.7674 101.092 13.6568C100.884 13.4611 100.438 13.1084 100.399 13.1084C100.389 13.1084 100.306 13.0583 100.215 12.9971C99.9638 12.8267 99.4115 12.5755 98.9813 12.4357C98.6003 12.3118 97.9787 12.1969 97.2594 12.1172C96.8402 12.0708 95.0796 12.0538 94.3793 12.0894ZM111.053 12.1017C111.046 12.1088 110.909 12.1251 110.748 12.1378C110.588 12.1505 110.35 12.1762 110.22 12.195C110.089 12.2138 109.918 12.2382 109.838 12.2494C109.501 12.2968 108.826 12.5076 108.525 12.66C108.201 12.8236 107.593 13.2648 107.409 13.4696C107.225 13.675 106.836 14.4157 106.763 14.6987C106.686 14.9982 106.605 15.5083 106.575 15.8836C106.537 16.3756 106.546 25.8509 106.585 25.8905C106.622 25.9275 109.839 25.9317 109.876 25.8949C109.891 25.88 109.915 23.7413 109.93 21.1424C109.944 18.5434 109.967 16.3593 109.98 16.289C110.033 16.0041 110.158 15.6478 110.245 15.5339C110.365 15.3765 110.634 15.184 110.84 15.1084C111.26 14.9541 111.728 14.9062 112.644 14.9237C113.757 14.9449 114.052 15.0075 114.4 15.2953C114.731 15.5689 114.829 15.7894 114.875 16.3621C114.893 16.5933 114.912 18.7813 114.917 21.2243C114.921 23.6672 114.934 25.718 114.945 25.7814C114.964 25.8883 114.979 25.8981 115.136 25.9136C115.419 25.9414 118.232 25.924 118.262 25.8942C118.277 25.8789 118.294 23.765 118.3 21.1965C118.306 18.6281 118.319 16.4349 118.329 16.323C118.339 16.2109 118.374 16.0218 118.407 15.9025C118.439 15.7833 118.475 15.6493 118.485 15.6047C118.516 15.4703 118.836 15.1786 119.03 15.1089C119.611 14.8999 121.105 14.8486 121.99 15.0073C122.516 15.1017 122.955 15.4051 123.063 15.7502C123.242 16.3176 123.247 16.4478 123.269 21.3035C123.28 23.8101 123.303 25.8743 123.319 25.8904C123.366 25.938 126.407 25.954 126.527 25.9073L126.629 25.8675L126.613 20.9777C126.604 18.2883 126.586 15.9974 126.574 15.8868C126.471 14.9534 126.367 14.5627 126.097 14.0768C125.858 13.6487 125.511 13.2835 125.072 12.998C123.957 12.2736 122.982 12.0667 120.829 12.0972C120.217 12.1059 119.659 12.1223 119.589 12.1338C119.519 12.1452 119.38 12.1631 119.279 12.1735C118.844 12.2188 118.298 12.3333 117.82 12.48C117.759 12.4986 117.538 12.6002 117.328 12.7059C116.974 12.884 116.926 12.8983 116.673 12.902C116.417 12.9056 116.376 12.8946 116.035 12.7293C115.471 12.4564 115.077 12.3383 114.358 12.2262C113.525 12.0966 113.342 12.0846 112.22 12.0866C111.586 12.0877 111.061 12.0945 111.053 12.1017ZM56.627 12.2726C56.4888 12.3011 56.378 12.4015 56.2821 12.5855C56.242 12.662 56.1997 12.7328 56.1877 12.7429C56.1757 12.7529 56.1097 12.8434 56.0408 12.9439C55.9719 13.0445 55.8829 13.1661 55.8436 13.2142C55.8038 13.2623 55.7058 13.3809 55.6255 13.4778C55.4145 13.7327 55.339 13.8385 55.2424 14.0132C55.195 14.0987 55.1429 14.1686 55.1264 14.1686C55.11 14.1686 55.0969 14.1897 55.0969 14.2154C55.0969 14.2411 55.0641 14.2858 55.024 14.3148C54.9839 14.3438 54.9511 14.3868 54.9511 14.4104C54.9511 14.434 54.9263 14.4627 54.8964 14.4743C54.8661 14.4859 54.8417 14.5192 54.8417 14.5483C54.8417 14.5774 54.8293 14.6067 54.8144 14.6134C54.7582 14.6383 54.1126 15.4545 54.1126 15.5002C54.1126 15.5118 54.0838 15.553 54.0488 15.5917C54.0138 15.6303 53.98 15.6699 53.9474 15.7105C53.7178 16.0074 53.5264 16.2651 53.4228 16.4162C53.2759 16.6307 53.0462 16.8646 53.0298 16.8161C53.0236 16.7976 52.8865 16.6015 52.7254 16.3804C52.3889 15.9183 52.1497 15.5851 52.071 15.4685C52.0407 15.4239 51.9489 15.3065 51.8668 15.2076C51.7848 15.1087 51.6375 14.9043 51.5398 14.7535C51.4421 14.6027 51.344 14.4629 51.3218 14.4428C51.2996 14.4227 51.1519 14.2253 50.9941 14.0041C50.8362 13.7829 50.6229 13.495 50.5197 13.3643C50.4169 13.2336 50.2773 13.0445 50.2099 12.9439C50.1428 12.8434 50.0662 12.7393 50.04 12.7127C49.9507 12.6215 49.7706 12.3407 49.7997 12.3382C49.8158 12.3367 49.7961 12.3215 49.756 12.3042C49.7159 12.2869 48.7961 12.2716 47.7122 12.2702C46.1467 12.2681 45.7278 12.2774 45.6764 12.3152C45.6185 12.3576 45.6163 12.3811 45.6549 12.5251C45.7063 12.717 45.7435 12.7726 46.2054 13.3461C46.3997 13.5873 46.6302 13.8779 46.7173 13.9918C46.8044 14.1057 47.0071 14.363 47.1675 14.5636C47.3279 14.7642 47.492 14.9742 47.5321 15.0301C47.5722 15.0861 47.6305 15.1578 47.6615 15.1895C47.7727 15.3022 48.0921 15.6898 48.2846 15.9457C48.3918 16.0887 48.6163 16.3683 48.7833 16.5672C49.1457 16.9991 49.1497 17.0039 49.2623 17.1663C49.3112 17.2367 49.3604 17.3025 49.3717 17.3126C49.3827 17.3226 49.4403 17.3967 49.4997 17.4771C49.5587 17.5575 49.6244 17.6416 49.6451 17.6639C49.6659 17.6863 49.7312 17.7659 49.7899 17.8408C49.8486 17.9157 49.9452 18.029 50.0046 18.0926C50.0644 18.1562 50.18 18.2987 50.2624 18.4093C50.3444 18.5199 50.4202 18.6186 50.4308 18.6287C50.4414 18.6387 50.5358 18.7512 50.6404 18.8785C50.8041 19.0772 50.8249 19.119 50.7859 19.1729C50.5675 19.4739 50.2923 19.8204 50.1544 19.9678C50.0629 20.0657 49.9605 20.1869 49.9266 20.2372C49.893 20.2874 49.8384 20.3615 49.8052 20.4017C49.5879 20.6668 49.4096 20.8967 49.4096 20.9113C49.4096 20.9208 49.3724 20.9669 49.3276 21.0138C49.2357 21.109 48.9798 21.4182 48.9054 21.5234C48.8788 21.561 48.8012 21.653 48.7326 21.7279C48.6641 21.8028 48.6076 21.8775 48.6076 21.894C48.6076 21.9106 48.5872 21.9447 48.562 21.9699C48.5369 21.995 48.4672 22.0789 48.4071 22.1564C48.2514 22.3565 48.0888 22.5496 48.0221 22.6135C47.9907 22.6436 47.8781 22.7835 47.7723 22.9242C47.566 23.1982 47.3597 23.4512 47.2386 23.5775C47.1974 23.6204 47.1529 23.6843 47.1395 23.7194C47.126 23.7546 47.0983 23.7833 47.0775 23.7833C47.0567 23.7833 47.0399 23.808 47.0399 23.8381C47.0399 23.8683 47.0268 23.893 47.0111 23.893C46.9955 23.893 46.9532 23.9428 46.9174 24.0036C46.8817 24.0645 46.8164 24.1532 46.7731 24.2008C46.7293 24.2483 46.6455 24.3481 46.5868 24.4223C46.5281 24.4966 46.4377 24.6049 46.3863 24.6631C46.3345 24.7212 46.2269 24.8618 46.1467 24.9754C46.0665 25.089 45.9637 25.2217 45.9189 25.2703C45.8737 25.3189 45.8368 25.3743 45.8368 25.3935C45.8368 25.4127 45.8237 25.4284 45.808 25.4284C45.7545 25.4284 45.6546 25.6407 45.6546 25.7551C45.6546 25.8396 45.6761 25.878 45.7366 25.9023C45.7822 25.9207 46.6863 25.9323 47.7811 25.9286C49.6922 25.9221 49.745 25.92 49.7964 25.8494C49.8256 25.8095 49.9251 25.6914 50.0181 25.587C50.1107 25.4826 50.2372 25.3245 50.2992 25.2356C50.4045 25.085 50.6758 24.7203 50.78 24.59C50.8052 24.5585 50.9058 24.434 51.0043 24.3134C51.1023 24.1928 51.2952 23.9378 51.4326 23.7467C51.5701 23.5557 51.7035 23.383 51.729 23.3629C51.7699 23.3308 51.8606 23.2184 52.0539 22.9608C52.3251 22.5995 52.5271 22.3362 52.5446 22.321C52.5562 22.3109 52.6572 22.1711 52.7691 22.0103C52.9948 21.6857 53.2052 21.4436 53.2613 21.4436C53.2817 21.4436 53.3528 21.5281 53.4195 21.6312C53.4863 21.7344 53.6375 21.9412 53.756 22.0907C53.8745 22.2402 54.0794 22.5218 54.2114 22.7165C54.4545 23.075 54.569 23.2304 54.6879 23.3629C54.7845 23.4712 55.0605 23.85 55.0605 23.8747C55.0605 23.8865 55.1301 23.99 55.215 24.1048C55.3 24.2195 55.4035 24.3631 55.4454 24.424C55.487 24.4848 55.5475 24.5671 55.58 24.6068C55.7291 24.7886 55.8884 24.9965 55.9719 25.1177C56.0218 25.1905 56.0802 25.2696 56.1013 25.2935C56.1833 25.3872 56.3729 25.6811 56.3729 25.7151C56.3729 25.7348 56.4232 25.7935 56.4848 25.8456L56.5971 25.9402L58.5173 25.9397C59.5735 25.9394 60.4732 25.9297 60.5163 25.9181C60.5768 25.9018 60.5979 25.8631 60.6088 25.749C60.6172 25.6594 60.6045 25.5825 60.576 25.5539C60.5502 25.528 60.529 25.4981 60.529 25.4876C60.529 25.4771 60.4751 25.4142 60.4094 25.3479C60.3438 25.2816 60.2662 25.1794 60.2363 25.1208C60.2067 25.0622 60.0755 24.8895 59.9446 24.737C59.8137 24.5844 59.6581 24.3938 59.5983 24.3134C59.3689 24.0035 58.9446 23.472 58.9172 23.4604C58.9012 23.4537 58.8884 23.4275 58.8884 23.4021C58.8884 23.3767 58.8538 23.3246 58.8115 23.2863C58.7692 23.248 58.6409 23.0933 58.5264 22.9425C58.1954 22.5071 57.9952 22.2497 57.7594 21.9554C57.6148 21.7743 57.4724 21.5915 57.3321 21.407C57.2183 21.2562 57.1148 21.1246 57.1024 21.1146C57.0743 21.0916 56.6587 20.5436 56.6099 20.4647C56.5898 20.4324 56.5381 20.369 56.495 20.3237C56.3941 20.2175 56.0813 19.81 56.0813 19.7847C56.0813 19.774 56.0441 19.7254 55.9992 19.6768C55.7076 19.362 55.4979 19.0603 55.4979 18.955C55.4979 18.9137 55.5366 18.8653 55.5891 18.8413C55.639 18.8185 55.6802 18.7858 55.6802 18.7688C55.6802 18.7518 55.7207 18.7025 55.7703 18.6593C55.8199 18.616 55.9055 18.5133 55.9609 18.431C56.1086 18.211 56.2902 17.9806 56.5111 17.733C56.7444 17.4717 56.7615 17.4512 56.9223 17.2395C56.9909 17.149 57.0579 17.0667 57.0711 17.0567C57.0838 17.0466 57.1673 16.9397 57.2559 16.819C57.3445 16.6984 57.4816 16.5237 57.5603 16.4308C57.7193 16.2435 57.7393 16.2187 57.9861 15.9051C58.0813 15.7845 58.1812 15.6611 58.2082 15.6309C58.2348 15.6008 58.3452 15.4609 58.4531 15.3202C58.5611 15.1794 58.7371 14.9573 58.8447 14.8266C58.9519 14.696 59.0656 14.5561 59.0973 14.5159C59.1287 14.4757 59.222 14.3662 59.3041 14.2726C59.3861 14.179 59.4699 14.0803 59.49 14.0532C59.51 14.0262 59.5749 13.9383 59.6344 13.8578C59.7558 13.6939 60.046 13.3431 60.3245 13.0242C60.5177 12.8031 60.6329 12.575 60.6362 12.4063C60.638 12.3227 60.6202 12.3044 60.5199 12.2873C60.3493 12.2584 56.7619 12.2448 56.627 12.2726ZM64.3953 12.3373C64.3479 12.4261 64.3581 25.8438 64.4055 25.8915C64.4452 25.9313 67.6954 25.9313 67.7351 25.8914C67.7712 25.8555 67.7654 12.3466 67.7296 12.3105C67.7161 12.297 66.9691 12.281 66.0697 12.275C64.4656 12.2643 64.4335 12.2655 64.3953 12.3373ZM131.295 12.3007C131.212 12.3153 131.165 12.3464 131.153 12.3956C131.144 12.4358 131.134 15.4663 131.132 19.13C131.128 25.2737 131.133 25.7961 131.188 25.8517C131.241 25.9048 131.411 25.9142 132.628 25.9313C133.387 25.942 134.119 25.9388 134.254 25.9242L134.5 25.8978V12.3142L134.296 12.2901C134.048 12.2609 131.47 12.27 131.295 12.3007ZM96.5197 14.9022C97.5686 15.0112 98.2587 15.286 98.7031 15.7718C99.2372 16.356 99.3834 16.8942 99.429 18.4459C99.4866 20.4111 99.3655 21.5156 99.0316 22.0651C98.8198 22.4135 98.3035 22.8547 97.8795 23.0501C97.2751 23.3284 96.8227 23.3994 95.6553 23.3994C94.7369 23.3994 94.4799 23.3711 93.8744 23.203C93.3997 23.0711 92.9644 22.8232 92.648 22.5043C92.4566 22.3111 92.209 21.8529 92.115 21.5167C91.9513 20.9322 91.8452 20.0775 91.8463 19.3557C91.8492 17.7643 91.9863 16.8867 92.3326 16.2463C92.4897 15.9562 92.8642 15.5189 93.0351 15.4266C93.2327 15.3196 93.524 15.172 93.6319 15.1239C93.7501 15.0714 94.3224 14.9366 94.5798 14.9007C94.8886 14.8577 96.1004 14.8586 96.5197 14.9022ZM80.3981 19.803C80.6285 19.8189 80.8581 19.8409 80.9085 19.8518C80.9584 19.8628 81.1389 19.8817 81.3095 19.8939C81.4797 19.906 81.6522 19.9212 81.6923 19.9276C81.7324 19.9341 81.7776 19.9405 81.7933 19.942C81.8283 19.9454 81.794 20.9701 81.7415 21.4748C81.7007 21.8714 81.5774 22.3235 81.4579 22.5178C81.3018 22.7707 80.8556 23.0842 80.572 23.1398C80.5264 23.1487 80.4152 23.1833 80.3251 23.2165C80.0182 23.3298 79.3215 23.3761 78.1013 23.3644C77.4695 23.3583 76.8872 23.3425 76.807 23.3293C76.3477 23.2534 75.8931 23.1103 75.639 22.9615C75.4622 22.858 75.1785 22.506 75.0575 22.24C74.8996 21.8925 74.8588 21.1393 74.9849 20.8928C75.0396 20.7858 75.2536 20.5026 75.3881 20.3594C75.5157 20.2237 76.0961 19.9973 76.4545 19.9438C76.7688 19.8967 77.5573 19.8042 77.7914 19.7869C78.1246 19.7622 79.9722 19.7736 80.3981 19.803Z" fill="#89898A"/>
<path fill-rule="evenodd" clip-rule="evenodd" d="M17.5805 0.0330054C17.5716 0.0407923 17.1952 0.0575357 16.7441 0.0702213C13.8594 0.151416 10.8393 0.620818 8.94226 1.28284C7.06601 1.93763 5.59249 2.85307 4.34759 4.13742C3.57511 4.93431 3.00733 5.73244 2.49667 6.7392C1.67311 8.36266 1.25695 9.98799 0.870583 13.0901C0.594093 15.3097 0.50018 16.9159 0.506122 19.3232C0.513268 22.2075 0.75053 24.8483 1.25334 27.6401C1.63549 29.7619 2.37308 31.4563 3.59443 33.018C3.98335 33.5154 4.01795 33.5549 4.45066 33.9971C5.99756 35.5778 7.84528 36.6334 10.0177 37.1774C11.123 37.4541 12.8202 37.7042 14.3744 37.8193C15.8685 37.9301 17.9179 37.986 20.4809 37.986C25.6361 37.986 28.8741 37.4523 31.4544 36.1771C32.5915 35.6151 33.4814 34.974 34.3931 34.0598C35.7131 32.7361 36.5342 31.3795 37.1612 29.4863C37.8604 27.3759 38.1586 25.5138 38.2388 22.7596C38.2523 22.3072 38.268 21.9281 38.2742 21.9172C38.2957 21.8782 38.3449 19.3603 38.3449 18.2813C38.3449 15.8535 38.2352 14.0531 37.9793 12.2775C37.649 9.98535 37.2261 8.45925 36.5231 7.0215C35.9197 5.78738 35.2633 4.87699 34.3058 3.94571C33.4432 3.10678 32.5023 2.45178 31.3451 1.88458C29.3762 0.919532 27.2376 0.402897 24.5458 0.24197C23.408 0.173972 23.3 0.168416 22.3949 0.131382C21.9036 0.111276 21.3294 0.0859411 21.1189 0.07512C20.6338 0.0501145 17.602 0.0140685 17.5805 0.0330054ZM20.9783 11.9582C21.9189 12.114 22.7282 12.5512 23.4068 13.2701C23.8641 13.7546 24.161 14.25 24.3613 14.8631C24.5498 15.4402 24.5458 15.3043 24.5458 21.229C24.5458 26.6957 24.5452 26.7451 24.4729 26.8175C24.4022 26.8885 24.3514 26.8907 22.7453 26.8907C21.2229 26.8907 21.0844 26.8855 21.0137 26.8267L20.9369 26.7627L20.9264 21.864C20.9167 17.2639 20.912 16.9518 20.8502 16.7459C20.608 15.9388 19.9748 15.3113 19.1867 15.0976C18.9686 15.0384 18.6596 15.0329 15.304 15.0285C13.2989 15.0259 11.6155 15.0378 11.5631 15.055C11.5107 15.0721 11.4492 15.1272 11.4264 15.1774C11.3959 15.2444 11.3849 16.7958 11.3849 21.0066C11.3849 26.6957 11.3843 26.7451 11.312 26.8175C11.2412 26.8885 11.1905 26.8907 9.58839 26.8907C8.15337 26.8907 7.92712 26.8832 7.85669 26.8337L7.77564 26.7769V19.4125C7.77564 12.0902 7.77604 12.0478 7.84877 11.9749C7.9214 11.902 7.96318 11.9016 14.2925 11.9038C19.6342 11.9056 20.7141 11.9144 20.9783 11.9582ZM30.9821 11.9917L31.0716 12.0814V26.698L30.9961 26.7943L30.9205 26.8907H27.5771L27.5015 26.7943L27.4259 26.698V12.0814L27.5155 11.9917L27.6049 11.902H30.8927L30.9821 11.9917ZM17.9898 17.7386C18.0537 17.7966 18.0565 17.9851 18.0565 22.2718C18.0565 26.6957 18.0557 26.7452 17.9836 26.8175C17.9127 26.8886 17.8621 26.8907 16.1607 26.8907C14.4594 26.8907 14.4088 26.8886 14.3379 26.8175C14.2658 26.7452 14.265 26.6957 14.265 22.2844C14.265 17.8731 14.2658 17.8235 14.3379 17.7512C14.4088 17.6801 14.4594 17.6781 16.167 17.6781C17.75 17.6781 17.9297 17.6841 17.9898 17.7386Z" fill="#FF6200"/>
</svg>
