<svg width="105" height="34" viewBox="0 0 105 34" fill="none" xmlns="http://www.w3.org/2000/svg">
<g clip-path="url(#clip0_220_374)">
<path d="M24.6903 18.0664C24.6474 13.7641 28.368 11.697 28.5353 11.5986C26.4412 8.67433 23.1884 8.2724 22.0297 8.22728C19.2618 7.95659 16.6269 9.78579 15.2194 9.78579C13.8118 9.78579 11.6447 8.26419 9.34887 8.30931C6.32778 8.35032 3.54272 9.98675 1.98497 12.5706C-1.14769 17.7629 1.18679 25.4734 4.2465 29.6936C5.74416 31.7566 7.52077 34.0821 9.86383 33.9959C12.1211 33.9098 12.9707 32.6015 15.6914 32.6015C18.4121 32.6015 19.1803 33.9959 21.5619 33.9549C23.9865 33.9098 25.5228 31.8468 27.0076 29.7757C28.7156 27.3764 29.4236 25.0591 29.4665 24.9361C29.4108 24.9156 24.7418 23.2053 24.6903 18.0664Z" fill="black"/>
<path d="M20.2143 5.43016C21.4587 3.99059 22.2955 1.99324 22.0681 0C20.2786 0.0697226 18.1115 1.14017 16.8284 2.57973C15.6783 3.85115 14.6699 5.8854 14.9445 7.83764C16.9314 7.98528 18.9741 6.86562 20.2143 5.43016ZM40.3834 22.2948L38.3236 28.2622H35.6759L42.4175 9.29771H45.5073L52.2747 28.2622H49.5368L47.4169 22.2948H40.3834ZM46.8891 20.3795L44.9494 14.9206C44.5074 13.682 44.2156 12.5583 43.9195 11.4591H43.8637C43.5676 12.5829 43.2457 13.7353 42.8638 14.8919L40.9241 20.3754L46.8891 20.3795ZM54.283 19.0876C54.283 17.3445 54.2272 15.9337 54.1628 14.6417H56.4887L56.6089 16.9795H56.6647C57.7246 15.3185 59.4025 14.3341 61.7284 14.3341C65.1744 14.3341 67.762 17.1189 67.762 21.2572C67.762 26.1542 64.6422 28.5698 61.2864 28.5698C59.4025 28.5698 57.7547 27.7824 56.9007 26.4331H56.8449V33.8318H54.283V19.0876ZM56.8406 22.7172C56.8406 23.0864 56.8964 23.4186 56.9608 23.7303C57.4328 25.4446 58.9906 26.6299 60.8487 26.6299C63.5866 26.6299 65.1786 24.4931 65.1786 21.3679C65.1786 18.6364 63.6767 16.3069 60.9388 16.3069C59.1751 16.3069 57.5272 17.5168 57.0209 19.3747C56.9307 19.6823 56.8449 20.0514 56.8449 20.3877L56.8406 22.7172ZM70.4398 19.0876C70.4398 17.3445 70.384 15.9337 70.3196 14.6417H72.6455L72.7657 16.9795H72.8215C73.8814 15.3185 75.5593 14.3341 77.8852 14.3341C81.3312 14.3341 83.9188 17.1189 83.9188 21.2572C83.9188 26.1542 80.799 28.5698 77.4432 28.5698C75.5593 28.5698 73.9115 27.7824 73.0575 26.4331H73.0017V33.8318H70.4398V19.0876ZM73.0017 22.7172C73.0017 23.0864 73.0575 23.4186 73.1219 23.7303C73.5939 25.4446 75.1517 26.6299 77.0098 26.6299C79.7477 26.6299 81.3397 24.4931 81.3397 21.3679C81.3397 18.6364 79.8378 16.3069 77.0999 16.3069C75.3362 16.3069 73.6883 17.5168 73.1819 19.3747C73.0918 19.6823 73.006 20.0514 73.006 20.3877L73.0017 22.7172ZM86.6009 8.28468H89.1928V28.2581H86.6009V8.28468ZM94.4025 21.9011C94.4583 25.2478 96.6984 26.6299 99.286 26.6299C101.14 26.6299 102.26 26.3223 103.23 25.9286L103.672 27.7004C102.762 28.0941 101.2 28.5452 98.9341 28.5452C94.5484 28.5452 91.9264 25.7891 91.9264 21.6796C91.9264 17.5701 94.4583 14.3341 98.608 14.3341C103.26 14.3341 104.496 18.2427 104.496 20.7486C104.496 21.2572 104.44 21.6468 104.406 21.9011H94.4025ZM101.998 20.1293C102.028 18.5544 101.32 16.1059 98.4063 16.1059C95.7843 16.1059 94.6385 18.415 94.4325 20.1293H101.998Z" fill="black"/>
</g>
<defs>
<clipPath id="clip0_220_374">
<rect width="104" height="34" fill="white" transform="translate(0.5)"/>
</clipPath>
</defs>
</svg>
