<svg width="64" height="64" viewBox="0 0 64 64" fill="none" xmlns="http://www.w3.org/2000/svg">
<circle cx="32" cy="32" r="32" fill="url(#paint0_linear_607_904)"/>
<g opacity="0.5" filter="url(#filter0_b_607_904)">
<path fill-rule="evenodd" clip-rule="evenodd" d="M33.312 17.5728C30.1893 17.0946 27.3387 17.4621 24.9402 18.7457C22.5262 20.0294 20.6875 22.1688 19.46 25.0281C18.3301 27.6507 18.0014 30.213 18.5355 32.6242C18.9413 34.4868 19.8452 36.1883 21.196 37.7085C21.5504 38.1112 21.6531 38.6649 21.422 39.1482C21.1446 39.7321 20.8724 40.3211 20.6002 40.9151C20.5051 41.1302 20.4702 41.3662 20.4991 41.5989C20.5279 41.8316 20.6196 42.0526 20.7646 42.239C22.2335 44.1871 23.2093 46.4776 23.574 48.8989C23.6716 49.5533 24.2263 50.0718 24.9042 50.0718H25.7671C27.8729 50.0718 30.1533 50.691 32.2386 51.7531C32.9319 52.1055 33.8102 51.8538 34.1235 51.1491C34.9766 49.2492 35.773 47.3255 36.5118 45.3802C36.6088 45.1395 36.7749 44.9315 36.9901 44.7814C37.2052 44.6313 37.4601 44.5456 37.7239 44.5345C39.7783 44.4187 41.653 43.865 43.2965 42.8532C45.428 41.5443 47.0715 39.5207 48.1963 36.9031C49.3776 34.1596 49.6807 31.4866 49.0489 28.9898C48.4172 26.4879 46.8764 24.2881 44.5805 22.4457C44.4254 22.3206 44.2425 22.233 44.0465 22.1898C43.8505 22.1467 43.6469 22.1492 43.4521 22.1971C43.2572 22.2451 43.0766 22.3372 42.9247 22.4661C42.7728 22.5949 42.6539 22.7569 42.5775 22.939C42.5269 23.0601 42.4756 23.1809 42.4234 23.3014C42.0074 24.2679 41.6016 25.2898 41.2267 26.2312C40.9493 26.9208 40.6925 27.5702 40.4563 28.1239C39.8554 29.5586 39.3109 30.666 38.6946 31.4513C38.104 32.2064 37.5184 32.589 36.8302 32.7098C36.0906 32.8306 35.0223 32.6998 33.4147 31.9698C31.7917 31.2349 31.0059 30.5503 30.6412 29.9613C30.3074 29.4227 30.2303 28.8035 30.4255 27.9276C30.631 27.0014 31.124 25.914 31.8071 24.5347L32.2488 23.6538C32.9788 22.234 33.6589 20.7901 34.2878 19.3246C34.3674 19.1482 34.4044 18.9562 34.3962 18.7634C34.388 18.5707 34.3346 18.3824 34.2403 18.2131C34.146 18.0438 34.0132 17.898 33.8523 17.787C33.6913 17.6759 33.5064 17.6027 33.312 17.5728Z" fill="white" fill-opacity="0.6"/>
<path d="M25.1761 19.1866L25.1749 19.1872C22.8785 20.4084 21.1103 22.4515 19.9194 25.2253L19.9192 25.2259C18.8226 27.7712 18.5163 30.2259 19.0237 32.5161L19.024 32.5178C19.4096 34.2879 20.2698 35.9133 21.5698 37.3764L21.5713 37.3782C22.0441 37.9154 22.1992 38.6813 21.8734 39.3633C21.5981 39.9429 21.3275 40.5282 21.0563 41.12C20.9986 41.2518 20.9777 41.3957 20.9952 41.5373C21.013 41.6799 21.0692 41.8163 21.1593 41.9321L21.1638 41.938L21.1638 41.938C22.6818 43.9513 23.6911 46.3193 24.0684 48.8244L24.0685 48.8251C24.1322 49.2522 24.4913 49.5718 24.9042 49.5718H25.7671C27.9657 49.5718 30.3234 50.2165 32.4651 51.3074C32.9391 51.5483 33.4854 51.3537 33.6666 50.9459L33.6674 50.9442C34.5164 49.0534 35.3091 47.1387 36.0443 45.2027L36.0479 45.1932L36.048 45.1932C36.1818 44.8615 36.4101 44.5764 36.704 44.3714C36.9966 44.1672 37.3421 44.0508 37.699 44.0351C39.678 43.9231 41.4695 43.3908 43.0344 42.4274L43.0349 42.4271C45.0637 41.1813 46.6455 39.2457 47.737 36.7057L47.7371 36.7053C48.8834 34.0431 49.1641 31.4834 48.5642 29.1124L48.5642 29.1122C47.9642 26.7361 46.4965 24.6243 44.2676 22.8356L44.2668 22.835C44.1722 22.7588 44.06 22.7048 43.9389 22.6781C43.8178 22.6514 43.6919 22.653 43.5716 22.6826C43.4513 22.7123 43.3406 22.769 43.2481 22.8474C43.1559 22.9257 43.0844 23.0233 43.0387 23.132C42.9874 23.255 42.9352 23.3777 42.8822 23.5001L25.1761 19.1866ZM25.1761 19.1866C27.4597 17.9645 30.1961 17.6015 33.2361 18.067C33.3564 18.0855 33.47 18.1307 33.5684 18.1986C33.6667 18.2664 33.7469 18.3548 33.8035 18.4564C33.8601 18.558 33.8918 18.6703 33.8967 18.7848C33.9016 18.8993 33.8796 19.0136 33.832 19.1192L33.8319 19.1192L33.8284 19.1274C33.204 20.5823 32.5289 22.0157 31.8042 23.4252L31.8041 23.4252L31.8019 23.4297L31.3602 24.3106L31.3591 24.3128M25.1761 19.1866L31.3591 24.3128M41.6912 26.4162L41.6906 26.4177C41.6362 26.553 41.5824 26.6873 41.5292 26.8199C41.3135 27.358 41.1084 27.8695 40.9169 28.3185C40.3148 29.7559 39.7491 30.9177 39.0879 31.76C38.4446 32.5822 37.7592 33.0544 36.9167 33.2023L36.9108 33.2033L36.9108 33.2033C36.0369 33.346 34.8641 33.177 33.2085 32.4253L41.6912 26.4162ZM41.6912 26.4162L41.7326 26.3121M41.6912 26.4162L41.7326 26.3121M31.3591 24.3128C30.6793 25.6855 30.1581 26.8247 29.9375 27.8189C29.7236 28.7786 29.7932 29.542 30.2161 30.2245L31.3591 24.3128ZM41.7326 26.3121C42.0963 25.3991 42.4847 24.4236 42.8822 23.5001L41.7326 26.3121ZM30.2162 30.2247C30.6567 30.936 31.547 31.6729 33.2082 32.4252L30.2162 30.2247Z" stroke="white"/>
</g>
<g filter="url(#filter1_b_607_904)">
<path fill-rule="evenodd" clip-rule="evenodd" d="M30.5693 13.9156C27.4466 13.4374 24.5961 13.8049 22.1975 15.0885C19.7836 16.3722 17.9448 18.5116 16.7173 21.3708C15.5874 23.9935 15.2587 26.5558 15.7928 28.967C16.1986 30.8296 17.1025 32.531 18.4533 34.0513C18.8077 34.454 18.9104 35.0077 18.6793 35.491C18.402 36.0749 18.1297 36.6639 17.8575 37.2579C17.7624 37.473 17.7275 37.709 17.7564 37.9417C17.7853 38.1744 17.8769 38.3953 18.0219 38.5818C19.4908 40.5299 20.4667 42.8204 20.8313 45.2417C20.9289 45.8961 21.4836 46.4146 22.1616 46.4146H23.0244C25.1302 46.4146 27.4106 47.0337 29.4959 48.0959C30.1893 48.4483 31.0675 48.1966 31.3808 47.4918C32.2339 45.592 33.0304 43.6682 33.7691 41.723C33.8661 41.4823 34.0323 41.2743 34.2474 41.1242C34.4625 40.9741 34.7174 40.8883 34.9812 40.8773C37.0356 40.7615 38.9103 40.2077 40.5539 39.1959C42.6853 37.8871 44.3289 35.8635 45.4537 33.2458C46.635 30.5024 46.938 27.8294 46.3063 25.3325C45.6745 22.8307 44.1337 20.6309 41.8379 18.7884C41.6827 18.6634 41.4998 18.5758 41.3038 18.5326C41.1078 18.4894 40.9042 18.4919 40.7094 18.5399C40.5146 18.5879 40.3339 18.68 40.182 18.8089C40.0301 18.9377 39.9112 19.0997 39.8348 19.2818C39.7842 19.4029 39.7329 19.5237 39.6807 19.6442C39.2647 20.6107 38.8589 21.6326 38.484 22.5739C38.2067 23.2636 37.9499 23.913 37.7136 24.4667C37.1127 25.9014 36.5683 27.0088 35.9519 27.7941C35.3613 28.5492 34.7758 28.9318 34.0875 29.0526C33.3479 29.1734 32.2796 29.0425 30.672 28.3126C29.049 27.5777 28.2632 26.893 27.8986 26.3041C27.5647 25.7654 27.4877 25.1463 27.6828 24.2704C27.8883 23.3441 28.3813 22.2568 29.0644 20.8775L29.5062 19.9966C30.2361 18.5768 30.9162 17.1329 31.5452 15.6674C31.6247 15.491 31.6618 15.2989 31.6535 15.1062C31.6453 14.9135 31.5919 14.7252 31.4976 14.5559C31.4033 14.3865 31.2705 14.2407 31.1096 14.1297C30.9486 14.0187 30.7638 13.9455 30.5693 13.9156Z" fill="white" fill-opacity="0.6"/>
<path d="M22.4334 15.5293L22.4323 15.53C20.1358 16.7511 18.3676 18.7943 17.1768 21.5681L17.1765 21.5687C16.0799 24.114 15.7737 26.5687 16.281 28.8589L16.2814 28.8606C16.667 30.6306 17.5271 32.2561 18.8271 33.7192L18.8287 33.721C19.3015 34.2582 19.4565 35.0241 19.1307 35.706C18.8554 36.2857 18.5849 36.871 18.3136 37.4628C18.2559 37.5946 18.235 37.7385 18.2526 37.8801C18.2703 38.0227 18.3265 38.159 18.4166 38.2749L18.4212 38.2807L18.4211 38.2808C19.9391 40.294 20.9485 42.662 21.3257 45.1672L21.3259 45.1679C21.3895 45.5949 21.7486 45.9146 22.1616 45.9146H23.0244C25.223 45.9146 27.5807 46.5593 29.7224 47.6502C30.1964 47.8911 30.7427 47.6964 30.9239 47.2887L30.9247 47.287C31.7738 45.3962 32.5664 43.4815 33.3017 41.5454L33.3053 41.536L33.3054 41.536C33.4391 41.2043 33.6675 40.9191 33.9613 40.7141C34.2539 40.51 34.5995 40.3936 34.9563 40.3779C36.9354 40.2659 38.7269 39.7335 40.2917 38.7701L40.2922 38.7698C42.321 37.5241 43.9028 35.5885 44.9943 33.0484L44.9944 33.0481C46.1407 30.3859 46.4214 27.8261 45.8215 25.4552L45.8215 25.4549C45.2215 23.0789 43.7538 20.9671 41.5249 19.1784L41.5241 19.1777C41.4296 19.1015 41.3173 19.0476 41.1963 19.0209C41.0752 18.9942 40.9493 18.9958 40.8289 19.0254C40.7086 19.055 40.5979 19.1117 40.5055 19.1902C40.4132 19.2684 40.3417 19.3661 40.296 19.4748C40.2447 19.5978 40.1925 19.7205 40.1396 19.8428L22.4334 15.5293ZM22.4334 15.5293C24.717 14.3072 27.4534 13.9443 30.4935 14.4098C30.6137 14.4283 30.7273 14.4735 30.8257 14.5413C30.924 14.6091 31.0042 14.6976 31.0608 14.7992C31.1174 14.9007 31.1491 15.0131 31.154 15.1276C31.1589 15.2421 31.1369 15.3564 31.0893 15.462L31.0893 15.4619L31.0857 15.4702C30.4613 16.925 29.7862 18.3585 29.0615 19.7679L29.0615 19.7679L29.0592 19.7725L28.6175 20.6534L28.6164 20.6556M22.4334 15.5293L28.6164 20.6556M38.9485 22.759L38.9479 22.7605C38.8935 22.8958 38.8397 23.03 38.7865 23.1626C38.5708 23.7008 38.3658 24.2122 38.1742 24.6613C37.5721 26.0986 37.0064 27.2604 36.3453 28.1028C35.7019 28.925 35.0165 29.3972 34.174 29.5451L34.1681 29.5461L34.1681 29.5461C33.2942 29.6888 32.1215 29.5198 30.4658 28.7681L38.9485 22.759ZM38.9485 22.759L38.99 22.6549M38.9485 22.759L38.99 22.6549M28.6164 20.6556C27.9366 22.0283 27.4154 23.1675 27.1948 24.1616C26.981 25.1214 27.0505 25.8848 27.4734 26.5673L28.6164 20.6556ZM38.99 22.6549C39.3536 21.7419 39.7421 20.7664 40.1396 19.8429L38.99 22.6549ZM27.4736 26.5675C27.9141 27.2788 28.8043 28.0157 30.4656 28.768L27.4736 26.5675Z" stroke="white"/>
</g>
<defs>
<filter id="filter0_b_607_904" x="14.2856" y="13.3716" width="39.0859" height="42.5396" filterUnits="userSpaceOnUse" color-interpolation-filters="sRGB">
<feFlood flood-opacity="0" result="BackgroundImageFix"/>
<feGaussianBlur in="BackgroundImageFix" stdDeviation="2"/>
<feComposite in2="SourceAlpha" operator="in" result="effect1_backgroundBlur_607_904"/>
<feBlend mode="normal" in="SourceGraphic" in2="effect1_backgroundBlur_607_904" result="shape"/>
</filter>
<filter id="filter1_b_607_904" x="11.543" y="9.71436" width="39.0859" height="42.5396" filterUnits="userSpaceOnUse" color-interpolation-filters="sRGB">
<feFlood flood-opacity="0" result="BackgroundImageFix"/>
<feGaussianBlur in="BackgroundImageFix" stdDeviation="2"/>
<feComposite in2="SourceAlpha" operator="in" result="effect1_backgroundBlur_607_904"/>
<feBlend mode="normal" in="SourceGraphic" in2="effect1_backgroundBlur_607_904" result="shape"/>
</filter>
<linearGradient id="paint0_linear_607_904" x1="1.21294e-06" y1="14.4906" x2="56.2826" y2="46.2712" gradientUnits="userSpaceOnUse">
<stop stop-color="#01E54D"/>
<stop offset="1" stop-color="#3EE8FF"/>
</linearGradient>
</defs>
</svg>
