<svg width="148" height="24" viewBox="0 0 148 24" fill="none" xmlns="http://www.w3.org/2000/svg">
<path d="M46.8025 4.75052V9.05567L45.7705 9.08042C43.6536 9.1299 41.9601 10.7381 41.9601 12.7175V20.3629H37.832V12.1979C37.832 8.18969 41.2456 4.92371 45.5059 4.8C46.1145 4.77526 46.5644 4.75052 46.8025 4.75052Z" fill="#142835"/>
<path d="M64.0819 14.1031H52.0419C52.5711 15.9835 54.0794 16.899 56.5403 16.899C58.1016 16.899 59.2923 16.4041 60.1127 15.4144L63.4204 17.1959C61.8591 19.3237 59.5305 20.3876 56.461 20.3876C53.8148 20.3876 51.6979 19.6454 50.1102 18.1361C48.5225 16.6516 47.7021 14.7711 47.7021 12.4949C47.7021 10.2186 48.496 8.38763 50.0572 6.87835C51.6185 5.36908 53.6296 4.60207 56.117 4.60207C58.6043 4.60207 60.4037 5.36908 61.8856 6.87835C63.4204 8.38763 64.1878 10.268 64.1878 12.4949C64.2407 12.9402 64.1878 13.4598 64.0819 14.1031ZM51.9889 11.1093H60.1391C59.901 10.1443 59.4247 9.37732 58.7102 8.88248C57.9957 8.36289 57.149 8.11547 56.1699 8.11547C55.0585 8.11547 54.1588 8.38763 53.4179 8.90722C52.6769 9.42681 52.2271 10.1443 51.9889 11.1093Z" fill="#142835"/>
<path d="M100.678 18.1113C99.0639 19.6206 97.0528 20.3876 94.6712 20.3876C92.2897 20.3876 90.2786 19.6206 88.6645 18.1113C87.0503 16.6021 86.23 14.7216 86.23 12.4948C86.23 10.268 87.0238 8.43711 88.6645 6.92783C90.3051 5.39381 92.3162 4.6268 94.6712 4.6268C97.0263 4.6268 99.0374 5.39381 100.678 6.92783C102.319 8.46185 103.139 10.3175 103.139 12.4948C103.139 14.6722 102.319 16.6021 100.678 18.1113ZM91.6017 15.4639C92.422 16.2309 93.454 16.6268 94.6977 16.6268C95.9414 16.6268 96.9734 16.2309 97.7937 15.4639C98.614 14.6969 99.0374 13.7072 99.0374 12.5196C99.0374 11.332 98.614 10.3423 97.7937 9.57525C96.9734 8.80824 95.9414 8.41237 94.6977 8.41237C93.454 8.41237 92.422 8.80824 91.6017 9.57525C90.7814 10.367 90.3845 11.3567 90.3845 12.5196C90.3845 13.6825 90.7814 14.6722 91.6017 15.4639Z" fill="#45B1E5"/>
<path d="M119.651 18.1113C118.037 19.6206 116.026 20.3876 113.644 20.3876C111.263 20.3876 109.252 19.6206 107.638 18.1113C106.023 16.6021 105.203 14.7216 105.203 12.4948C105.203 10.268 105.997 8.43711 107.638 6.92783C109.278 5.39381 111.289 4.6268 113.644 4.6268C115.999 4.6268 118.011 5.39381 119.651 6.92783C121.292 8.46185 122.112 10.3175 122.112 12.4948C122.112 14.6722 121.292 16.6021 119.651 18.1113ZM110.548 15.4639C111.369 16.2309 112.401 16.6268 113.644 16.6268C114.888 16.6268 115.92 16.2309 116.74 15.4639C117.561 14.6969 117.984 13.7072 117.984 12.5196C117.984 11.332 117.561 10.3423 116.74 9.57525C115.92 8.80824 114.888 8.41237 113.644 8.41237C112.401 8.41237 111.369 8.80824 110.548 9.57525C109.728 10.367 109.331 11.3567 109.331 12.5196C109.331 13.6825 109.755 14.6722 110.548 15.4639Z" fill="#45B1E5"/>
<path d="M128.463 9.27835C128.463 9.92165 129.442 10.466 131.374 10.9113C132.062 11.0598 132.671 11.2083 133.226 11.4062C133.782 11.6041 134.338 11.8516 134.893 12.2227C135.449 12.5691 135.899 13.0392 136.216 13.6083C136.534 14.1773 136.693 14.8454 136.693 15.6124C136.693 17.1464 136.084 18.334 134.84 19.1505C133.597 19.967 132.088 20.3629 130.289 20.3629C127.008 20.3629 124.785 19.1753 123.594 16.8247L127.167 14.9443C127.669 16.2309 128.701 16.8742 130.289 16.8742C131.744 16.8742 132.485 16.4536 132.485 15.5876C132.485 14.9443 131.506 14.4 129.575 13.9546C128.86 13.7814 128.225 13.5835 127.722 13.4103C127.219 13.2371 126.664 12.965 126.055 12.6186C125.447 12.2722 124.997 11.8268 124.706 11.2825C124.415 10.7381 124.229 10.0948 124.229 9.35258C124.229 7.86804 124.811 6.7299 125.949 5.88866C127.114 5.02268 128.569 4.60207 130.289 4.60207C131.586 4.60207 132.776 4.87423 133.835 5.41856C134.893 5.96289 135.74 6.75464 136.349 7.76908L132.829 9.55052C132.327 8.53609 131.48 8.0165 130.289 8.0165C129.76 8.0165 129.31 8.14021 128.966 8.36289C128.622 8.58557 128.437 8.93196 128.463 9.27835Z" fill="#45B1E5"/>
<path d="M147.992 5.04742V8.73402H144.393V14.9443C144.393 15.4639 144.525 15.8351 144.816 16.0825C145.081 16.3299 145.504 16.4536 146.033 16.4783C146.563 16.5031 147.224 16.5031 148.018 16.4536V19.9423C145.24 20.2392 143.255 19.9918 142.064 19.2247C140.873 18.433 140.291 17.0227 140.291 14.9443V8.75876H137.513V5.04742H140.291V1.16289L144.393 0V5.04742H147.992Z" fill="#45B1E5"/>
<path d="M81.6257 6.92784C79.9851 5.39381 77.974 4.6268 75.6189 4.6268C74.0047 4.6268 72.5758 4.99794 71.3057 5.69072V0L67.2041 1.7567V12.5196C67.2041 14.7464 67.998 16.6268 69.6386 18.1361C71.2527 19.6454 73.2638 20.4124 75.6454 20.4124C78.0269 20.4124 80.038 19.6454 81.6522 18.1361C83.2663 16.6268 84.1131 14.7217 84.1131 12.5196C84.1131 10.3175 83.2663 8.46186 81.6257 6.92784ZM78.7149 15.4639C77.8946 16.2309 76.8626 16.6268 75.6189 16.6268C74.3752 16.6268 73.3432 16.2309 72.5229 15.4639C71.7026 14.6722 71.3057 13.6825 71.3057 12.5196C71.3057 11.3567 71.7026 10.367 72.5229 9.57526C73.3432 8.80825 74.3752 8.41237 75.6189 8.41237C76.8626 8.41237 77.8946 8.80825 78.7149 9.57526C79.5352 10.3423 79.9586 11.332 79.9586 12.5196C79.9586 13.7072 79.5352 14.6969 78.7149 15.4639Z" fill="#45B1E5"/>
<path d="M15.7371 24H2.53271L15.9752 11.7773L7.77212 0.346392L19.8386 0.445361L26.1894 9.4268C27.3273 11.0351 27.0891 13.1381 25.6867 14.499C25.6602 14.499 15.7371 24 15.7371 24Z" fill="url(#paint0_linear_583_1469)"/>
<path opacity="0.51" d="M23.4375 16.6268C23.0935 15.5876 22.3262 14.0041 21.9028 13.5588C21.3471 12.9649 18.4363 10.4412 18.4363 10.4412L16.1606 9.97113C16.1606 9.97113 15.2609 10.0454 14.3877 10.1443L15.7107 11.9753L13.3027 14.1773C13.3557 14.2515 15.3138 17.1711 16.0812 18.433C16.8486 19.6948 17.1397 21.4515 15.7107 24C15.7372 24 23.4375 16.6268 23.4375 16.6268Z" fill="url(#paint1_linear_583_1469)"/>
<path d="M19.0979 18.334C19.1243 19.7938 18.5422 21.1299 17.6425 22.1938L25.8191 14.3505C27.2481 12.9897 27.4598 10.8619 26.3219 9.27835L19.7859 0H7.13721L15.7108 11.9753C15.7372 11.9753 19.0714 16.2062 19.0979 18.334Z" fill="url(#paint2_linear_583_1469)"/>
<path d="M7.24219 15.4639C7.24219 16.3546 6.89819 17.1711 6.34249 17.7897L13.0902 11.6041L7.66558 4.3299H-0.00830078L5.20464 11.5794C5.20464 11.6041 7.24219 14.1526 7.24219 15.4639Z" fill="url(#paint3_linear_583_1469)"/>
<defs>
<linearGradient id="paint0_linear_583_1469" x1="17.4283" y1="7.26713" x2="2.58697" y2="21.9295" gradientUnits="userSpaceOnUse">
<stop stop-color="#0048BD"/>
<stop offset="1" stop-color="#0050E8"/>
</linearGradient>
<linearGradient id="paint1_linear_583_1469" x1="13.3239" y1="16.993" x2="23.4375" y2="16.993" gradientUnits="userSpaceOnUse">
<stop stop-color="#115893"/>
<stop offset="1" stop-color="#49C1FA"/>
</linearGradient>
<linearGradient id="paint2_linear_583_1469" x1="10.9877" y1="1.31359" x2="21.976" y2="17.2287" gradientUnits="userSpaceOnUse">
<stop stop-color="#017CFF"/>
<stop offset="1" stop-color="#3EC1FF"/>
</linearGradient>
<linearGradient id="paint3_linear_583_1469" x1="10.465" y1="14.6773" x2="2.46182" y2="5.11158" gradientUnits="userSpaceOnUse">
<stop stop-color="#0046B5"/>
<stop offset="1" stop-color="#024CD7"/>
</linearGradient>
</defs>
</svg>
