<svg width="64" height="64" viewBox="0 0 64 64" fill="none" xmlns="http://www.w3.org/2000/svg">
<circle cx="32" cy="32" r="32" fill="url(#paint0_linear_220_423)"/>
<g filter="url(#filter0_b_220_423)">
<path fill-rule="evenodd" clip-rule="evenodd" d="M34.6314 18.9243C35.1756 18.9243 35.65 19.2947 35.7819 19.8226L36.5648 22.9541C36.6432 23.2675 36.8459 23.5353 37.1263 23.6958L38.68 24.585C38.9582 24.7441 39.2889 24.784 39.5969 24.6954L42.681 23.8081C43.2046 23.6575 43.7635 23.883 44.0359 24.3548L46.6704 28.9178C46.9409 29.3864 46.86 29.9787 46.4736 30.3575L44.1808 32.6057C43.9533 32.8287 43.8251 33.1339 43.8251 33.4525V35.2301C43.8251 35.5487 43.9533 35.8539 44.1808 36.0769L46.4736 38.3251C46.86 38.7039 46.9409 39.2962 46.6704 39.7648L44.0359 44.3278C43.7635 44.7996 43.2046 45.0251 42.681 44.8745L39.6101 43.991C39.2944 43.9002 38.9551 43.9444 38.6732 44.1131L37.5087 44.8099C37.2654 44.9555 37.0823 45.1835 36.9926 45.4525L35.8277 48.9473C35.6663 49.4316 35.2131 49.7582 34.7026 49.7582H29.2966C28.7862 49.7582 28.333 49.4316 28.1716 48.9473L27.0054 45.4489C26.9165 45.1821 26.7356 44.9556 26.4951 44.8098L25.3525 44.1171C25.0701 43.9459 24.7291 43.9002 24.4116 43.9911L21.3173 44.8762C20.7941 45.0259 20.2362 44.8003 19.9641 44.329L17.3323 39.7705C17.0602 39.2993 17.1437 38.7033 17.5349 38.325L19.8591 36.0778C20.0902 35.8544 20.2206 35.5467 20.2206 35.2252L20.2206 33.4573C20.2206 33.1359 20.0902 32.8282 19.8591 32.6048L17.5349 30.3576C17.1437 29.9793 17.0602 29.3833 17.3323 28.912L19.9641 24.3536C20.2362 23.8823 20.7941 23.6567 21.3173 23.8064L24.4255 24.6955C24.7348 24.784 25.0669 24.743 25.3454 24.5819L26.8768 23.6962C27.1548 23.5354 27.3557 23.2688 27.4336 22.9572L28.2173 19.8226C28.3493 19.2947 28.8236 18.9243 29.3678 18.9243H34.6314ZM31.9997 40.0337C35.1435 40.0337 37.6921 37.4851 37.6921 34.3413C37.6921 31.1974 35.1435 28.6489 31.9997 28.6489C28.8558 28.6489 26.3073 31.1974 26.3073 34.3413C26.3073 37.4851 28.8558 40.0337 31.9997 40.0337Z" fill="white" fill-opacity="0.49"/>
<path d="M35.7819 19.8226L35.2969 19.9439V19.9439L35.7819 19.8226ZM36.5648 22.9541L37.0499 22.8329V22.8329L36.5648 22.9541ZM37.1263 23.6958L36.8779 24.1297V24.1297L37.1263 23.6958ZM38.68 24.585L38.4317 25.0189V25.0189L38.68 24.585ZM39.5969 24.6954L39.4587 24.2149L39.5969 24.6954ZM42.681 23.8081L42.5428 23.3276L42.681 23.8081ZM44.0359 24.3548L43.6029 24.6048L44.0359 24.3548ZM46.6704 28.9178L46.2374 29.1678L46.6704 28.9178ZM46.4736 30.3575L46.1235 30.0005L46.4736 30.3575ZM44.1808 32.6057L43.8307 32.2487V32.2487L44.1808 32.6057ZM44.1808 36.0769L43.8307 36.4339H43.8307L44.1808 36.0769ZM46.4736 38.3251L46.8237 37.968L46.4736 38.3251ZM46.6704 39.7648L46.2374 39.5148L46.6704 39.7648ZM44.0359 44.3278L43.6029 44.0778H43.6029L44.0359 44.3278ZM42.681 44.8745L42.8193 44.394L42.681 44.8745ZM39.6101 43.991L39.4718 44.4715H39.4718L39.6101 43.991ZM38.6732 44.1131L38.93 44.5421L38.93 44.5421L38.6732 44.1131ZM37.5087 44.8099L37.252 44.3809V44.3809L37.5087 44.8099ZM36.9926 45.4525L36.5183 45.2944L36.5183 45.2944L36.9926 45.4525ZM35.8277 48.9473L36.302 49.1055V49.1055L35.8277 48.9473ZM28.1716 48.9473L28.6459 48.7892L28.1716 48.9473ZM27.0054 45.4489L26.5311 45.607H26.5311L27.0054 45.4489ZM26.4951 44.8098L26.7543 44.3822L26.7543 44.3822L26.4951 44.8098ZM25.3525 44.1171L25.0933 44.5447H25.0933L25.3525 44.1171ZM24.4116 43.9911L24.5491 44.4718L24.5491 44.4718L24.4116 43.9911ZM21.3173 44.8762L21.1798 44.3955L21.3173 44.8762ZM19.9641 44.329L20.3971 44.079H20.3971L19.9641 44.329ZM17.3323 39.7705L17.7653 39.5205H17.7653L17.3323 39.7705ZM17.5349 38.325L17.1874 37.9656H17.1874L17.5349 38.325ZM19.8591 36.0778L20.2066 36.4372L19.8591 36.0778ZM20.2206 35.2252H19.7206H20.2206ZM20.2206 33.4573L20.7206 33.4573L20.2206 33.4573ZM19.8591 32.6048L19.5115 32.9642H19.5115L19.8591 32.6048ZM17.5349 30.3576L17.1874 30.717H17.1874L17.5349 30.3576ZM17.3323 28.912L16.8992 28.662H16.8992L17.3323 28.912ZM19.9641 24.3536L20.3971 24.6036L20.3971 24.6036L19.9641 24.3536ZM21.3173 23.8064L21.4548 23.3256L21.3173 23.8064ZM24.4255 24.6955L24.288 25.1762H24.288L24.4255 24.6955ZM25.3454 24.5819L25.0951 24.1491L25.3454 24.5819ZM26.8768 23.6962L27.1272 24.129L26.8768 23.6962ZM27.4336 22.9572L26.9486 22.836V22.836L27.4336 22.9572ZM28.2173 19.8226L28.7024 19.9439V19.9439L28.2173 19.8226ZM36.267 19.7013C36.0794 18.9508 35.405 18.4243 34.6314 18.4243V19.4243C34.9462 19.4243 35.2205 19.6385 35.2969 19.9439L36.267 19.7013ZM37.0499 22.8329L36.267 19.7013L35.2969 19.9439L36.0798 23.0754L37.0499 22.8329ZM37.3746 23.2618C37.2125 23.169 37.0952 23.0141 37.0499 22.8329L36.0798 23.0754C36.1911 23.5209 36.4794 23.9017 36.8779 24.1297L37.3746 23.2618ZM38.9284 24.151L37.3746 23.2618L36.8779 24.1297L38.4317 25.0189L38.9284 24.151ZM39.4587 24.2149C39.2806 24.2661 39.0892 24.2431 38.9284 24.151L38.4317 25.0189C38.8271 25.2452 39.2973 25.3018 39.7352 25.1759L39.4587 24.2149ZM42.5428 23.3276L39.4587 24.2149L39.7352 25.1759L42.8193 24.2886L42.5428 23.3276ZM44.4689 24.1048C44.0817 23.434 43.2871 23.1134 42.5428 23.3276L42.8193 24.2886C43.1221 24.2015 43.4454 24.3319 43.6029 24.6048L44.4689 24.1048ZM47.1034 28.6678L44.4689 24.1048L43.6029 24.6048L46.2374 29.1678L47.1034 28.6678ZM46.8237 30.7145C47.3729 30.176 47.488 29.334 47.1034 28.6678L46.2374 29.1678C46.3938 29.4388 46.347 29.7814 46.1235 30.0005L46.8237 30.7145ZM44.5308 32.9627L46.8237 30.7145L46.1235 30.0005L43.8307 32.2487L44.5308 32.9627ZM44.3251 33.4525C44.3251 33.2682 44.3993 33.0917 44.5308 32.9627L43.8307 32.2487C43.5074 32.5657 43.3251 32.9996 43.3251 33.4525H44.3251ZM44.3251 35.2301V33.4525H43.3251V35.2301H44.3251ZM44.5308 35.7199C44.3993 35.5909 44.3251 35.4144 44.3251 35.2301H43.3251C43.3251 35.683 43.5073 36.1168 43.8307 36.4339L44.5308 35.7199ZM46.8237 37.968L44.5308 35.7199L43.8307 36.4339L46.1236 38.6821L46.8237 37.968ZM47.1034 40.0148C47.488 39.3486 47.3729 38.5066 46.8237 37.968L46.1236 38.6821C46.347 38.9012 46.3938 39.2438 46.2374 39.5148L47.1034 40.0148ZM44.4689 44.5778L47.1034 40.0148L46.2374 39.5148L43.6029 44.0778L44.4689 44.5778ZM42.5428 45.355C43.2871 45.5691 44.0817 45.2485 44.469 44.5778L43.6029 44.0778C43.4454 44.3507 43.1221 44.4811 42.8193 44.394L42.5428 45.355ZM39.4718 44.4715L42.5428 45.355L42.8193 44.394L39.7483 43.5105L39.4718 44.4715ZM38.93 44.5421C39.093 44.4445 39.2892 44.419 39.4718 44.4715L39.7483 43.5105C39.2995 43.3814 38.8172 43.4442 38.4165 43.684L38.93 44.5421ZM37.7655 45.239L38.93 44.5421L38.4165 43.684L37.252 44.3809L37.7655 45.239ZM37.4669 45.6106C37.5188 45.455 37.6247 45.3232 37.7655 45.239L37.252 44.3809C36.906 44.5879 36.6457 44.912 36.5183 45.2944L37.4669 45.6106ZM36.302 49.1055L37.467 45.6106L36.5183 45.2944L35.3533 48.7892L36.302 49.1055ZM34.7026 50.2582C35.4283 50.2582 36.0725 49.7939 36.302 49.1055L35.3533 48.7892C35.26 49.0693 34.9978 49.2582 34.7026 49.2582V50.2582ZM29.2966 50.2582H34.7026V49.2582H29.2966V50.2582ZM27.6972 49.1055C27.9267 49.7939 28.5709 50.2582 29.2966 50.2582V49.2582C29.0014 49.2582 28.7393 49.0693 28.6459 48.7892L27.6972 49.1055ZM26.5311 45.607L27.6972 49.1055L28.6459 48.7892L27.4797 45.2908L26.5311 45.607ZM26.2359 45.2373C26.375 45.3217 26.4796 45.4527 26.5311 45.607L27.4797 45.2908C27.3533 44.9115 27.0962 44.5895 26.7543 44.3822L26.2359 45.2373ZM25.0933 44.5447L26.2359 45.2373L26.7543 44.3822L25.6117 43.6896L25.0933 44.5447ZM24.5491 44.4718C24.7328 44.4192 24.93 44.4457 25.0933 44.5447L25.6117 43.6896C25.2102 43.4462 24.7255 43.3812 24.2741 43.5103L24.5491 44.4718ZM21.4548 45.3569L24.5491 44.4718L24.2741 43.5103L21.1798 44.3955L21.4548 45.3569ZM19.5311 44.579C19.9179 45.249 20.711 45.5697 21.4548 45.3569L21.1798 44.3955C20.8772 44.4821 20.5545 44.3516 20.3971 44.079L19.5311 44.579ZM16.8992 40.0205L19.5311 44.579L20.3971 44.079L17.7653 39.5205L16.8992 40.0205ZM17.1874 37.9656C16.6312 38.5033 16.5124 39.3506 16.8992 40.0205L17.7653 39.5205C17.6079 39.248 17.6562 38.9033 17.8825 38.6845L17.1874 37.9656ZM19.5115 35.7183L17.1874 37.9656L17.8825 38.6845L20.2066 36.4372L19.5115 35.7183ZM19.7206 35.2252C19.7206 35.4112 19.6452 35.5891 19.5115 35.7183L20.2066 36.4372C20.5351 36.1196 20.7206 35.6822 20.7206 35.2252H19.7206ZM19.7206 33.4573L19.7206 35.2252H20.7206L20.7206 33.4573L19.7206 33.4573ZM19.5115 32.9642C19.6452 33.0935 19.7206 33.2714 19.7206 33.4573L20.7206 33.4573C20.7206 33.0004 20.5351 32.563 20.2066 32.2453L19.5115 32.9642ZM17.1874 30.717L19.5115 32.9642L20.2066 32.2453L17.8825 29.9981L17.1874 30.717ZM16.8992 28.662C16.5124 29.332 16.6312 30.1793 17.1874 30.717L17.8825 29.9981C17.6562 29.7793 17.6079 29.4346 17.7653 29.162L16.8992 28.662ZM19.5311 24.1036L16.8992 28.662L17.7653 29.162L20.3971 24.6036L19.5311 24.1036ZM21.4548 23.3256C20.711 23.1129 19.9179 23.4336 19.5311 24.1036L20.3971 24.6036C20.5545 24.331 20.8772 24.2005 21.1798 24.2871L21.4548 23.3256ZM24.563 24.2148L21.4548 23.3256L21.1798 24.2871L24.288 25.1762L24.563 24.2148ZM25.0951 24.1491C24.934 24.2422 24.7419 24.266 24.563 24.2148L24.288 25.1762C24.7278 25.302 25.1998 25.2437 25.5957 25.0147L25.0951 24.1491ZM26.6265 23.2634L25.0951 24.1491L25.5957 25.0147L27.1272 24.129L26.6265 23.2634ZM26.9486 22.836C26.9035 23.0161 26.7873 23.1704 26.6265 23.2634L27.1272 24.129C27.5224 23.9004 27.808 23.5214 27.9187 23.0785L26.9486 22.836ZM27.7322 19.7013L26.9486 22.836L27.9187 23.0785L28.7024 19.9439L27.7322 19.7013ZM29.3678 18.4243C28.5942 18.4243 27.9198 18.9508 27.7322 19.7013L28.7024 19.9439C28.7787 19.6385 29.053 19.4243 29.3678 19.4243V18.4243ZM34.6314 18.4243H29.3678V19.4243H34.6314V18.4243ZM37.1921 34.3413C37.1921 37.209 34.8674 39.5337 31.9997 39.5337V40.5337C35.4197 40.5337 38.1921 37.7612 38.1921 34.3413H37.1921ZM31.9997 29.1489C34.8674 29.1489 37.1921 31.4736 37.1921 34.3413H38.1921C38.1921 30.9213 35.4197 28.1489 31.9997 28.1489V29.1489ZM26.8073 34.3413C26.8073 31.4736 29.132 29.1489 31.9997 29.1489V28.1489C28.5797 28.1489 25.8073 30.9213 25.8073 34.3413H26.8073ZM31.9997 39.5337C29.132 39.5337 26.8073 37.209 26.8073 34.3413H25.8073C25.8073 37.7612 28.5797 40.5337 31.9997 40.5337V39.5337Z" fill="white" fill-opacity="0.7"/>
</g>
<g filter="url(#filter1_b_220_423)">
<path fill-rule="evenodd" clip-rule="evenodd" d="M34.6314 15.022C35.1756 15.022 35.65 15.3923 35.7819 15.9203L36.5648 19.0518C36.6432 19.3651 36.8459 19.633 37.1263 19.7934L38.68 20.6826C38.9582 20.8418 39.2889 20.8816 39.5969 20.793L42.681 19.9058C43.2046 19.7551 43.7635 19.9806 44.0359 20.4525L46.6704 25.0154C46.9409 25.4841 46.86 26.0764 46.4736 26.4552L44.1808 28.7033C43.9533 28.9264 43.8251 29.2315 43.8251 29.5501V31.3278C43.8251 31.6463 43.9533 31.9515 44.1808 32.1746L46.4736 34.4227C46.86 34.8015 46.9409 35.3938 46.6704 35.8624L44.0359 40.4254C43.7635 40.8973 43.2046 41.1228 42.681 40.9721L39.6101 40.0886C39.2944 39.9978 38.9551 40.042 38.6732 40.2107L37.5087 40.9076C37.2654 41.0532 37.0823 41.2812 36.9926 41.5502L35.8277 45.045C35.6663 45.5293 35.2131 45.8559 34.7026 45.8559H29.2966C28.7862 45.8559 28.333 45.5293 28.1716 45.045L27.0054 41.5465C26.9165 41.2797 26.7356 41.0532 26.4951 40.9074L25.3525 40.2148C25.0701 40.0436 24.7291 39.9979 24.4116 40.0887L21.3173 40.9739C20.7941 41.1235 20.2362 40.8979 19.9641 40.4267L17.3323 35.8682C17.0602 35.3969 17.1437 34.801 17.5349 34.4227L19.8591 32.1755C20.0902 31.952 20.2206 31.6443 20.2206 31.3229L20.2206 29.555C20.2206 29.2336 20.0902 28.9259 19.8591 28.7024L17.5349 26.4552C17.1437 26.0769 17.0602 25.481 17.3323 25.0097L19.9641 20.4512C20.2362 19.98 20.7941 19.7544 21.3173 19.904L24.4255 20.7932C24.7348 20.8816 25.0669 20.8406 25.3454 20.6796L26.8768 19.7938C27.1548 19.6331 27.3557 19.3664 27.4336 19.0549L28.2173 15.9203C28.3493 15.3923 28.8236 15.022 29.3678 15.022H34.6314ZM31.9997 36.1313C35.1435 36.1313 37.6921 33.5828 37.6921 30.4389C37.6921 27.2951 35.1435 24.7465 31.9997 24.7465C28.8558 24.7465 26.3073 27.2951 26.3073 30.4389C26.3073 33.5828 28.8558 36.1313 31.9997 36.1313Z" fill="white" fill-opacity="0.6"/>
<path d="M35.7819 15.9203L35.2969 16.0415V16.0415L35.7819 15.9203ZM36.5648 19.0518L37.0499 18.9305V18.9305L36.5648 19.0518ZM37.1263 19.7934L36.8779 20.2274V20.2274L37.1263 19.7934ZM38.68 20.6826L38.4317 21.1166V21.1166L38.68 20.6826ZM39.5969 20.793L39.4587 20.3125L39.5969 20.793ZM42.681 19.9058L42.5428 19.4252L42.681 19.9058ZM44.0359 20.4525L43.6029 20.7025L44.0359 20.4525ZM46.6704 25.0154L46.2374 25.2654L46.6704 25.0154ZM46.4736 26.4552L46.1235 26.0982L46.4736 26.4552ZM44.1808 28.7033L43.8307 28.3463V28.3463L44.1808 28.7033ZM44.1808 32.1746L43.8307 32.5316H43.8307L44.1808 32.1746ZM46.4736 34.4227L46.8237 34.0657L46.4736 34.4227ZM46.6704 35.8624L46.2374 35.6124L46.6704 35.8624ZM44.0359 40.4254L43.6029 40.1754H43.6029L44.0359 40.4254ZM42.681 40.9721L42.8193 40.4916L42.681 40.9721ZM39.6101 40.0886L39.4718 40.5692H39.4718L39.6101 40.0886ZM38.6732 40.2107L38.93 40.6398L38.93 40.6398L38.6732 40.2107ZM37.5087 40.9076L37.252 40.4785V40.4785L37.5087 40.9076ZM36.9926 41.5502L36.5183 41.3921L36.5183 41.3921L36.9926 41.5502ZM35.8277 45.045L36.302 45.2031V45.2031L35.8277 45.045ZM28.1716 45.045L28.6459 44.8869L28.1716 45.045ZM27.0054 41.5465L26.5311 41.7046H26.5311L27.0054 41.5465ZM26.4951 40.9074L26.7543 40.4799L26.7543 40.4799L26.4951 40.9074ZM25.3525 40.2148L25.0933 40.6423H25.0933L25.3525 40.2148ZM24.4116 40.0887L24.5491 40.5694L24.5491 40.5694L24.4116 40.0887ZM21.3173 40.9739L21.1798 40.4932L21.3173 40.9739ZM19.9641 40.4267L20.3971 40.1767H20.3971L19.9641 40.4267ZM17.3323 35.8682L17.7653 35.6182H17.7653L17.3323 35.8682ZM17.5349 34.4227L17.1874 34.0632H17.1874L17.5349 34.4227ZM19.8591 32.1755L20.2066 32.5349L19.8591 32.1755ZM20.2206 31.3229H19.7206H20.2206ZM20.2206 29.555L20.7206 29.555L20.2206 29.555ZM19.8591 28.7024L19.5115 29.0619H19.5115L19.8591 28.7024ZM17.5349 26.4552L17.1874 26.8147H17.1874L17.5349 26.4552ZM17.3323 25.0097L16.8992 24.7597H16.8992L17.3323 25.0097ZM19.9641 20.4512L20.3971 20.7012L20.3971 20.7012L19.9641 20.4512ZM21.3173 19.904L21.4548 19.4233L21.3173 19.904ZM24.4255 20.7932L24.288 21.2739H24.288L24.4255 20.7932ZM25.3454 20.6796L25.0951 20.2467L25.3454 20.6796ZM26.8768 19.7938L27.1272 20.2267L26.8768 19.7938ZM27.4336 19.0549L26.9486 18.9336V18.9336L27.4336 19.0549ZM28.2173 15.9203L28.7024 16.0415V16.0415L28.2173 15.9203ZM36.267 15.799C36.0794 15.0485 35.405 14.522 34.6314 14.522V15.522C34.9462 15.522 35.2205 15.7362 35.2969 16.0415L36.267 15.799ZM37.0499 18.9305L36.267 15.799L35.2969 16.0415L36.0798 19.173L37.0499 18.9305ZM37.3746 19.3595C37.2125 19.2667 37.0952 19.1118 37.0499 18.9305L36.0798 19.173C36.1911 19.6185 36.4794 19.9993 36.8779 20.2274L37.3746 19.3595ZM38.9284 20.2486L37.3746 19.3595L36.8779 20.2274L38.4317 21.1166L38.9284 20.2486ZM39.4587 20.3125C39.2806 20.3638 39.0892 20.3407 38.9284 20.2486L38.4317 21.1166C38.8271 21.3429 39.2973 21.3995 39.7352 21.2735L39.4587 20.3125ZM42.5428 19.4252L39.4587 20.3125L39.7352 21.2735L42.8193 20.3863L42.5428 19.4252ZM44.4689 20.2025C44.0817 19.5317 43.2871 19.2111 42.5428 19.4252L42.8193 20.3863C43.1221 20.2991 43.4454 20.4296 43.6029 20.7025L44.4689 20.2025ZM47.1034 24.7654L44.4689 20.2025L43.6029 20.7025L46.2374 25.2654L47.1034 24.7654ZM46.8237 26.8122C47.3729 26.2737 47.488 25.4316 47.1034 24.7654L46.2374 25.2654C46.3938 25.5365 46.347 25.8791 46.1235 26.0982L46.8237 26.8122ZM44.5308 29.0604L46.8237 26.8122L46.1235 26.0982L43.8307 28.3463L44.5308 29.0604ZM44.3251 29.5501C44.3251 29.3659 44.3993 29.1894 44.5308 29.0604L43.8307 28.3463C43.5074 28.6634 43.3251 29.0972 43.3251 29.5501H44.3251ZM44.3251 31.3278V29.5501H43.3251V31.3278H44.3251ZM44.5308 31.8175C44.3993 31.6885 44.3251 31.512 44.3251 31.3278H43.3251C43.3251 31.7807 43.5073 32.2145 43.8307 32.5316L44.5308 31.8175ZM46.8237 34.0657L44.5308 31.8175L43.8307 32.5316L46.1236 34.7797L46.8237 34.0657ZM47.1034 36.1124C47.488 35.4463 47.3729 34.6042 46.8237 34.0657L46.1236 34.7797C46.347 34.9988 46.3938 35.3414 46.2374 35.6124L47.1034 36.1124ZM44.4689 40.6754L47.1034 36.1124L46.2374 35.6124L43.6029 40.1754L44.4689 40.6754ZM42.5428 41.4527C43.2871 41.6668 44.0817 41.3462 44.469 40.6754L43.6029 40.1754C43.4454 40.4483 43.1221 40.5788 42.8193 40.4916L42.5428 41.4527ZM39.4718 40.5692L42.5428 41.4527L42.8193 40.4916L39.7483 39.6081L39.4718 40.5692ZM38.93 40.6398C39.093 40.5422 39.2892 40.5166 39.4718 40.5692L39.7483 39.6081C39.2995 39.479 38.8172 39.5419 38.4165 39.7817L38.93 40.6398ZM37.7655 41.3366L38.93 40.6398L38.4165 39.7817L37.252 40.4785L37.7655 41.3366ZM37.4669 41.7083C37.5188 41.5527 37.6247 41.4208 37.7655 41.3366L37.252 40.4785C36.906 40.6855 36.6457 41.0096 36.5183 41.3921L37.4669 41.7083ZM36.302 45.2031L37.467 41.7083L36.5183 41.3921L35.3533 44.8869L36.302 45.2031ZM34.7026 46.3559C35.4283 46.3559 36.0725 45.8915 36.302 45.2031L35.3533 44.8869C35.26 45.167 34.9978 45.3559 34.7026 45.3559V46.3559ZM29.2966 46.3559H34.7026V45.3559H29.2966V46.3559ZM27.6972 45.2031C27.9267 45.8915 28.5709 46.3559 29.2966 46.3559V45.3559C29.0014 45.3559 28.7393 45.167 28.6459 44.8869L27.6972 45.2031ZM26.5311 41.7046L27.6972 45.2031L28.6459 44.8869L27.4797 41.3884L26.5311 41.7046ZM26.2359 41.335C26.375 41.4193 26.4796 41.5503 26.5311 41.7046L27.4797 41.3884C27.3533 41.0091 27.0962 40.6871 26.7543 40.4799L26.2359 41.335ZM25.0933 40.6423L26.2359 41.335L26.7543 40.4799L25.6117 39.7872L25.0933 40.6423ZM24.5491 40.5694C24.7328 40.5169 24.93 40.5433 25.0933 40.6423L25.6117 39.7872C25.2102 39.5438 24.7255 39.4789 24.2741 39.608L24.5491 40.5694ZM21.4548 41.4546L24.5491 40.5694L24.2741 39.608L21.1798 40.4932L21.4548 41.4546ZM19.5311 40.6767C19.9179 41.3466 20.711 41.6674 21.4548 41.4546L21.1798 40.4932C20.8772 40.5797 20.5545 40.4492 20.3971 40.1767L19.5311 40.6767ZM16.8992 36.1182L19.5311 40.6767L20.3971 40.1767L17.7653 35.6182L16.8992 36.1182ZM17.1874 34.0632C16.6312 34.601 16.5124 35.4482 16.8992 36.1182L17.7653 35.6182C17.6079 35.3456 17.6562 35.0009 17.8825 34.7821L17.1874 34.0632ZM19.5115 31.816L17.1874 34.0632L17.8825 34.7821L20.2066 32.5349L19.5115 31.816ZM19.7206 31.3229C19.7206 31.5088 19.6452 31.6868 19.5115 31.816L20.2066 32.5349C20.5351 32.2173 20.7206 31.7799 20.7206 31.3229H19.7206ZM19.7206 29.555L19.7206 31.3229H20.7206L20.7206 29.555L19.7206 29.555ZM19.5115 29.0619C19.6452 29.1911 19.7206 29.3691 19.7206 29.555L20.7206 29.555C20.7206 29.098 20.5351 28.6606 20.2066 28.343L19.5115 29.0619ZM17.1874 26.8147L19.5115 29.0619L20.2066 28.343L17.8825 26.0958L17.1874 26.8147ZM16.8992 24.7597C16.5124 25.4297 16.6312 26.2769 17.1874 26.8147L17.8825 26.0958C17.6562 25.877 17.6079 25.5323 17.7653 25.2597L16.8992 24.7597ZM19.5311 20.2012L16.8992 24.7597L17.7653 25.2597L20.3971 20.7012L19.5311 20.2012ZM21.4548 19.4233C20.711 19.2105 19.9179 19.5313 19.5311 20.2012L20.3971 20.7012C20.5545 20.4287 20.8772 20.2982 21.1798 20.3847L21.4548 19.4233ZM24.563 20.3124L21.4548 19.4233L21.1798 20.3847L24.288 21.2739L24.563 20.3124ZM25.0951 20.2467C24.934 20.3399 24.7419 20.3636 24.563 20.3124L24.288 21.2739C24.7278 21.3997 25.1998 21.3414 25.5957 21.1124L25.0951 20.2467ZM26.6265 19.361L25.0951 20.2467L25.5957 21.1124L27.1272 20.2267L26.6265 19.361ZM26.9486 18.9336C26.9035 19.1138 26.7873 19.268 26.6265 19.361L27.1272 20.2267C27.5224 19.9981 27.808 19.619 27.9187 19.1761L26.9486 18.9336ZM27.7322 15.799L26.9486 18.9336L27.9187 19.1761L28.7024 16.0415L27.7322 15.799ZM29.3678 14.522C28.5942 14.522 27.9198 15.0485 27.7322 15.799L28.7024 16.0415C28.7787 15.7362 29.053 15.522 29.3678 15.522V14.522ZM34.6314 14.522H29.3678V15.522H34.6314V14.522ZM37.1921 30.4389C37.1921 33.3066 34.8674 35.6313 31.9997 35.6313V36.6313C35.4197 36.6313 38.1921 33.8589 38.1921 30.4389H37.1921ZM31.9997 25.2465C34.8674 25.2465 37.1921 27.5712 37.1921 30.4389H38.1921C38.1921 27.0189 35.4197 24.2465 31.9997 24.2465V25.2465ZM26.8073 30.4389C26.8073 27.5712 29.132 25.2465 31.9997 25.2465V24.2465C28.5797 24.2465 25.8073 27.0189 25.8073 30.4389H26.8073ZM31.9997 35.6313C29.132 35.6313 26.8073 33.3066 26.8073 30.4389H25.8073C25.8073 33.8589 28.5797 36.6313 31.9997 36.6313V35.6313Z" fill="white"/>
</g>
<defs>
<filter id="filter0_b_220_423" x="12.6733" y="14.4243" width="38.6558" height="39.834" filterUnits="userSpaceOnUse" color-interpolation-filters="sRGB">
<feFlood flood-opacity="0" result="BackgroundImageFix"/>
<feGaussianBlur in="BackgroundImageFix" stdDeviation="2"/>
<feComposite in2="SourceAlpha" operator="in" result="effect1_backgroundBlur_220_423"/>
<feBlend mode="normal" in="SourceGraphic" in2="effect1_backgroundBlur_220_423" result="shape"/>
</filter>
<filter id="filter1_b_220_423" x="12.6733" y="10.522" width="38.6558" height="39.834" filterUnits="userSpaceOnUse" color-interpolation-filters="sRGB">
<feFlood flood-opacity="0" result="BackgroundImageFix"/>
<feGaussianBlur in="BackgroundImageFix" stdDeviation="2"/>
<feComposite in2="SourceAlpha" operator="in" result="effect1_backgroundBlur_220_423"/>
<feBlend mode="normal" in="SourceGraphic" in2="effect1_backgroundBlur_220_423" result="shape"/>
</filter>
<linearGradient id="paint0_linear_220_423" x1="1.21294e-06" y1="14.4906" x2="56.2826" y2="46.2712" gradientUnits="userSpaceOnUse">
<stop stop-color="#017CFF"/>
<stop offset="1" stop-color="#3EC1FF"/>
</linearGradient>
</defs>
</svg>
