<svg width="14" height="14" viewBox="0 0 14 14" fill="none" xmlns="http://www.w3.org/2000/svg">
<path fill-rule="evenodd" clip-rule="evenodd" d="M0.4375 2.3125C0.4375 1.81522 0.635044 1.33831 0.986675 0.986675C1.33831 0.635044 1.81522 0.4375 2.3125 0.4375H3.17C3.7075 0.4375 4.17625 0.80375 4.30688 1.325L4.9975 4.08938C5.05347 4.31312 5.04216 4.54841 4.965 4.76576C4.88785 4.98312 4.74827 5.17287 4.56375 5.31125L3.75562 5.9175C3.67125 5.98063 3.65313 6.07312 3.67688 6.1375C4.02961 7.09678 4.58662 7.96794 5.30934 8.69066C6.03206 9.41338 6.90322 9.97039 7.8625 10.3231C7.92688 10.3469 8.01875 10.3288 8.0825 10.2444L8.68875 9.43625C8.82713 9.25173 9.01688 9.11215 9.23423 9.035C9.45159 8.95784 9.68688 8.94653 9.91063 9.0025L12.675 9.69312C13.1962 9.82375 13.5625 10.2925 13.5625 10.8306V11.6875C13.5625 12.1848 13.365 12.6617 13.0133 13.0133C12.6617 13.365 12.1848 13.5625 11.6875 13.5625H10.2812C4.845 13.5625 0.4375 9.155 0.4375 3.71875V2.3125Z" fill="#142835"/>
</svg>
