<svg width="41" height="40" viewBox="0 0 41 40" fill="none" xmlns="http://www.w3.org/2000/svg">
<path d="M17.4955 33.2224C16.5556 33.6623 15.4354 33.3103 14.9162 32.4118L13.7777 30.442C13.4926 29.9487 13.0106 29.6004 12.4527 29.4846L10.1412 29.0046C9.12863 28.7943 8.44335 27.8467 8.56083 26.8192L8.81532 24.5932C8.87805 24.0445 8.71113 23.4944 8.3541 23.073L6.85061 21.2988C6.21622 20.5502 6.21866 19.4519 6.85635 18.7061L8.34777 16.9618C8.70865 16.5397 8.87781 15.9866 8.81473 15.4349L8.56083 13.2142C8.44335 12.1866 9.12863 11.239 10.1412 11.0287L12.4488 10.5496C13.009 10.4332 13.4925 10.0826 13.7771 9.58639L14.9184 7.59652C15.436 6.69414 16.5589 6.33919 17.501 6.78014L19.4022 7.66991C19.9395 7.92133 20.5605 7.92133 21.0978 7.66991L23.0084 6.77572C23.9467 6.33662 25.0649 6.68662 25.5854 7.58229L26.7557 9.59619C27.0407 10.0866 27.5205 10.4329 28.0757 10.549L30.3616 11.0269C31.373 11.2383 32.0568 12.1852 31.9395 13.2117L31.6853 15.4349C31.6222 15.9866 31.7913 16.5397 32.1522 16.9618L33.6436 18.7061C34.2813 19.4519 34.2838 20.5502 33.6494 21.2988L32.1459 23.073C31.7889 23.4944 31.6219 24.0445 31.6847 24.5932L31.9395 26.8216C32.0568 27.8481 31.373 28.7951 30.3616 29.0065L28.0718 29.4851C27.5188 29.6007 27.0406 29.9447 26.7551 30.4322L25.5876 32.4261C25.0654 33.3178 23.9499 33.6649 23.0139 33.2269L21.0978 32.3301C20.5605 32.0787 19.9395 32.0787 19.4022 32.3301L17.4955 33.2224Z" fill="#142835"/>
<path d="M25.75 16.25L18.875 23.75L15.75 20.3409" stroke="white" stroke-width="2" stroke-linecap="square"/>
</svg>
