<svg width="78" height="141" viewBox="0 0 78 141" fill="none" xmlns="http://www.w3.org/2000/svg">
<path fill-rule="evenodd" clip-rule="evenodd" d="M1.98663 7.19497C0.678711 9.76191 0.678711 13.1222 0.678711 19.8429V121.514C0.678711 128.235 0.678711 131.595 1.98663 134.162C3.13711 136.42 4.97288 138.256 7.23082 139.406C9.79777 140.714 13.1581 140.714 19.8787 140.714H58.1216C64.8422 140.714 68.2025 140.714 70.7695 139.406C73.0274 138.256 74.8632 136.42 76.0136 134.162C77.3216 131.595 77.3216 128.235 77.3216 121.514V19.8429C77.3216 13.1222 77.3216 9.76191 76.0136 7.19497C74.8632 4.93702 73.0274 3.10125 70.7695 1.95077C68.2025 0.642853 64.8422 0.642853 58.1216 0.642853H19.8787C13.1581 0.642853 9.79777 0.642853 7.23082 1.95077C4.97288 3.10125 3.13711 4.93702 1.98663 7.19497ZM60.8037 11.2143C56.7898 11.2143 53.5359 14.4682 53.5359 18.4821V35.6607C53.5359 39.6746 56.7898 42.9286 60.8037 42.9286C64.8176 42.9286 68.0716 39.6746 68.0716 35.6607V18.4821C68.0716 14.4682 64.8176 11.2143 60.8037 11.2143Z" fill="#142835"/>
</svg>
