<svg width="77" height="141" viewBox="0 0 77 141" fill="none" xmlns="http://www.w3.org/2000/svg">
<path d="M40.0666 14.6486L59.1893 33.353M23.5999 24.8024L57.5957 59.0047M21.0213 139.357H55.6213C62.3419 139.357 65.7022 139.357 68.2692 138.049C70.5271 136.899 72.3629 135.063 73.5134 132.805C74.8213 130.238 74.8213 126.878 74.8213 120.157V21.5572C74.8213 14.8365 74.8213 11.4762 73.5134 8.90929C72.3629 6.65135 70.5271 4.81558 68.2692 3.6651C65.7022 2.35718 62.3419 2.35718 55.6213 2.35718H21.0213C14.3007 2.35718 10.9403 2.35718 8.3734 3.6651C6.11546 4.81558 4.27969 6.65135 3.12921 8.90929C1.82129 11.4762 1.82129 14.8365 1.82129 21.5572V120.157C1.82129 126.878 1.82129 130.238 3.12921 132.805C4.27969 135.063 6.11546 136.899 8.3734 138.049C10.9403 139.357 14.3007 139.357 21.0213 139.357Z" stroke="#142835" stroke-width="3" stroke-linecap="round" stroke-linejoin="round"/>
<path d="M24.7799 107.344V90.4037H18.1299V87.6037L23.3099 87.2187C23.7532 87.172 24.1032 87.032 24.3599 86.7987C24.6399 86.542 24.7799 86.2037 24.7799 85.7837V84.3487H28.6649V107.344H24.7799ZM17.2549 108.849V105.699H35.7699V108.849H17.2549Z" fill="#142835"/>
<path d="M40.1586 108.849V107.169C40.1586 105.139 40.4502 103.47 41.0336 102.164C41.6169 100.857 42.4569 99.7837 43.5536 98.9437C44.6502 98.1037 45.9686 97.3454 47.5086 96.6687L48.9086 96.0387C50.4252 95.3387 51.6036 94.6504 52.4436 93.9737C53.3069 93.2737 53.7386 92.3404 53.7386 91.1737C53.7386 90.4737 53.5752 89.8204 53.2486 89.2137C52.9452 88.607 52.4552 88.117 51.7786 87.7437C51.1252 87.3704 50.2502 87.1837 49.1536 87.1837C48.0802 87.1837 47.1702 87.4054 46.4236 87.8487C45.7002 88.2687 45.1519 88.8287 44.7786 89.5287C44.4052 90.2287 44.2186 91.0104 44.2186 91.8737H40.5086C40.5319 90.147 40.9286 88.7004 41.6986 87.5337C42.4919 86.3437 43.5419 85.4454 44.8486 84.8387C46.1786 84.232 47.6602 83.9287 49.2936 83.9287C50.9502 83.9287 52.3852 84.2204 53.5986 84.8037C54.8352 85.3637 55.7919 86.1687 56.4686 87.2187C57.1452 88.2687 57.4836 89.517 57.4836 90.9637C57.4836 92.6437 56.9469 94.1254 55.8736 95.4087C54.8236 96.6687 53.2252 97.8004 51.0786 98.8037L48.6636 99.9587C47.4502 100.495 46.5169 101.067 45.8636 101.674C45.2102 102.28 44.7552 102.91 44.4986 103.564C44.2652 104.217 44.1486 104.929 44.1486 105.699H57.8336V108.849H40.1586Z" fill="#142835"/>
<path d="M17.2734 124.849V116.449H18.8454L21.9894 123.721L21.4014 123.781L24.5334 116.449H26.0934V124.849H24.7734V117.601L25.2294 117.841L22.2054 124.849H21.1734L18.1374 117.841L18.5934 117.601V124.849H17.2734Z" fill="#142835"/>
<path d="M31.379 124.993C30.547 124.993 29.819 124.809 29.195 124.441C28.571 124.073 28.083 123.565 27.731 122.917C27.379 122.269 27.203 121.513 27.203 120.649C27.203 119.793 27.375 119.041 27.719 118.393C28.071 117.737 28.559 117.225 29.183 116.857C29.815 116.489 30.547 116.305 31.379 116.305C32.219 116.305 32.951 116.489 33.575 116.857C34.199 117.225 34.683 117.737 35.027 118.393C35.379 119.041 35.555 119.793 35.555 120.649C35.555 121.513 35.379 122.269 35.027 122.917C34.683 123.565 34.199 124.073 33.575 124.441C32.951 124.809 32.219 124.993 31.379 124.993ZM31.379 123.817C31.955 123.817 32.451 123.693 32.867 123.445C33.291 123.189 33.619 122.825 33.851 122.353C34.091 121.873 34.211 121.305 34.211 120.649C34.211 119.993 34.091 119.429 33.851 118.957C33.619 118.485 33.291 118.125 32.867 117.877C32.451 117.621 31.955 117.493 31.379 117.493C30.819 117.493 30.323 117.621 29.891 117.877C29.467 118.125 29.135 118.485 28.895 118.957C28.663 119.429 28.547 119.993 28.547 120.649C28.547 121.305 28.663 121.873 28.895 122.353C29.135 122.825 29.467 123.189 29.891 123.445C30.323 123.693 30.819 123.817 31.379 123.817Z" fill="#142835"/>
<path d="M36.6802 124.849V116.449H38.0002L42.1642 122.701V116.449H43.4842V124.849H42.1642L38.0002 118.609V124.849H36.6802Z" fill="#142835"/>
<path d="M47.1011 124.849V117.517H44.6171V116.449H50.8931V117.517H48.4211V124.849H47.1011Z" fill="#142835"/>
<path d="M57.3361 124.849V116.449H58.6561V124.849H57.3361ZM51.9961 124.849V116.449H53.3161V124.849H51.9961ZM53.1121 121.105V120.025H57.5881V121.105H53.1121Z" fill="#142835"/>
</svg>
