<svg width="41" height="40" viewBox="0 0 41 40" fill="none" xmlns="http://www.w3.org/2000/svg">
<path d="M18.3435 6.30269C20.2383 5.90606 22.2176 5.89354 24.1559 6.29878C24.4074 7.94628 25.3776 9.46871 26.9333 10.3668C28.4888 11.2649 30.2925 11.3441 31.8449 10.738C33.1651 12.2141 34.1439 13.9345 34.7477 15.7737C33.4484 16.8152 32.6165 18.4157 32.6165 20.2104C32.6165 22.0063 33.4494 23.6076 34.75 24.649C34.4498 25.5589 34.0525 26.452 33.5545 27.3145C33.0565 28.177 32.4818 28.9676 31.8439 29.6825C30.2916 29.0768 28.4885 29.1563 26.9333 30.0541C25.3789 30.9515 24.4089 32.4723 24.1564 34.1183C22.2618 34.5148 20.2825 34.5273 18.3441 34.1221C18.0927 32.4747 17.1223 30.9522 15.5668 30.0541C14.0112 29.156 12.2076 29.0768 10.6551 29.683C9.33494 28.2069 8.35613 26.4864 7.75226 24.6472C9.05156 23.6057 9.88353 22.0052 9.88353 20.2104C9.88353 18.4147 9.05059 16.8134 7.75 15.7719C8.05019 14.862 8.44746 13.9689 8.94543 13.1064C9.44341 12.2439 10.0182 11.4533 10.6561 10.7384C12.2083 11.344 14.0115 11.2647 15.5668 10.3668C17.1211 9.46942 18.0911 7.9487 18.3435 6.30269ZM21.25 24.4728C23.604 24.4728 25.5125 22.5646 25.5125 20.2104C25.5125 17.8564 23.604 15.948 21.25 15.948C18.8959 15.948 16.9876 17.8564 16.9876 20.2104C16.9876 22.5646 18.8959 24.4728 21.25 24.4728Z" fill="#142835"/>
</svg>
