<svg width="64" height="59" viewBox="0 0 64 59" fill="none" xmlns="http://www.w3.org/2000/svg">
<path d="M29.153 54.9403C10.5895 42.6061 4.33557 27.1898 3.20896 18.923C3.1135 18.2225 3.06577 17.8722 3.1412 17.3741C3.19935 16.99 3.38769 16.4589 3.58448 16.1239C3.83975 15.6894 4.16438 15.3844 4.81364 14.7744L16.1668 4.10874C16.7662 3.54567 17.0658 3.26414 17.4106 3.06314C17.7164 2.88489 18.0473 2.75386 18.3923 2.67448C18.7813 2.58496 19.1927 2.58496 20.0156 2.58496H43.6653C44.4824 2.58496 44.8909 2.58496 45.2775 2.67332C45.6204 2.75168 45.9495 2.88104 46.2538 3.05707C46.597 3.25558 46.896 3.53368 47.4939 4.08989L58.6698 14.4862C59.4483 15.2103 59.8376 15.5724 60.104 16.0422C60.3251 16.4319 60.4912 16.9469 60.5396 17.3923C60.5979 17.929 60.5042 18.3969 60.3168 19.3326C56.7235 37.2757 43.1491 49.676 34.5738 55.0648C33.7179 55.6026 33.2899 55.8716 32.6932 56.003C32.2218 56.1068 31.5631 56.0984 31.0945 55.9827C30.5014 55.8362 30.0519 55.5376 29.153 54.9403Z" fill="url(#paint0_linear_351_1030)"/>
<path d="M3.20896 18.923L5.68607 18.5854H5.68607L3.20896 18.923ZM29.153 54.9403L27.7695 57.0226L29.153 54.9403ZM34.5738 55.0648L35.904 57.1815L35.904 57.1815L34.5738 55.0648ZM60.3168 19.3326L62.7682 19.8235V19.8235L60.3168 19.3326ZM58.6698 14.4862L60.3726 12.6557V12.6557L58.6698 14.4862ZM47.4939 4.08989L45.7911 5.92035V5.92035L47.4939 4.08989ZM16.1668 4.10874L17.8786 5.93081L17.8786 5.93081L16.1668 4.10874ZM4.81364 14.7744L3.1019 12.9524L3.1019 12.9524L4.81364 14.7744ZM18.3923 2.67448L18.9529 5.11081L18.3923 2.67448ZM17.4106 3.06314L16.1515 0.903377L16.1515 0.903378L17.4106 3.06314ZM46.2538 3.05707L47.5055 0.892998V0.892996L46.2538 3.05707ZM45.2775 2.67332L44.7205 5.11047L44.7205 5.11047L45.2775 2.67332ZM60.5396 17.3923L63.025 17.1223L63.025 17.1223L60.5396 17.3923ZM60.104 16.0422L57.9294 17.2755L57.9294 17.2755L60.104 16.0422ZM31.0945 55.9827L30.495 58.4097L31.0945 55.9827ZM32.6932 56.003L33.2309 58.4445L33.2309 58.4445L32.6932 56.003ZM3.1412 17.3741L5.61302 17.7484V17.7484L3.1412 17.3741ZM3.58448 16.1239L1.42892 14.8576H1.42892L3.58448 16.1239ZM23.2121 23.246C22.1604 22.3514 20.5826 22.4787 19.688 23.5304C18.7934 24.5821 18.9208 26.1599 19.9725 27.0545L23.2121 23.246ZM43.9162 20.3455C44.8488 19.3273 44.7793 17.7459 43.7611 16.8134C42.7429 15.8809 41.1615 15.9503 40.229 16.9685L43.9162 20.3455ZM28.2928 30.8499L29.9127 28.9457L28.2928 30.8499ZM0.731861 19.2606C1.95517 28.237 8.60606 44.2898 27.7695 57.0226L30.5366 52.858C12.573 40.9225 6.71597 26.1426 5.68607 18.5854L0.731861 19.2606ZM35.904 57.1815C44.7875 51.5991 58.9877 38.7009 62.7682 19.8235L57.8655 18.8417C54.4592 35.8505 41.5108 47.7529 33.2436 52.948L35.904 57.1815ZM60.3726 12.6557L49.1967 2.25943L45.7911 5.92035L56.9671 16.3166L60.3726 12.6557ZM43.6653 0.0849609H20.0156V5.08496H43.6653V0.0849609ZM14.4551 2.28667L3.1019 12.9524L6.52538 16.5965L17.8786 5.93081L14.4551 2.28667ZM20.0156 0.0849609C19.3063 0.0849609 18.5616 0.0701804 17.8317 0.238148L18.9529 5.11081C19.001 5.09974 19.0792 5.08496 20.0156 5.08496V0.0849609ZM17.8786 5.93081C18.5607 5.28997 18.6275 5.24756 18.6698 5.2229L16.1515 0.903378C15.5042 1.28072 14.9716 1.80137 14.4551 2.28667L17.8786 5.93081ZM17.8317 0.238148C17.2413 0.373993 16.6748 0.598253 16.1515 0.903377L18.6698 5.2229C18.7579 5.17154 18.8533 5.13372 18.9529 5.11081L17.8317 0.238148ZM49.1967 2.25943C48.6813 1.78 48.1498 1.26564 47.5055 0.892998L45.0021 5.22115C45.0442 5.24552 45.1107 5.28736 45.7911 5.92035L49.1967 2.25943ZM43.6653 5.08496C44.5951 5.08496 44.6727 5.09955 44.7205 5.11047L45.8346 0.236167C45.1092 0.0703759 44.3697 0.0849609 43.6653 0.0849609V5.08496ZM47.5055 0.892996C46.9845 0.591655 46.4213 0.37026 45.8346 0.236166L44.7205 5.11047C44.8195 5.1331 44.9144 5.17042 45.0021 5.22115L47.5055 0.892996ZM62.7682 19.8235C62.933 19.0005 63.1334 18.1204 63.025 17.1223L58.0542 17.6623C58.0568 17.6856 58.0622 17.7306 58.0417 17.887C58.0155 18.0865 57.9651 18.3441 57.8655 18.8417L62.7682 19.8235ZM56.9671 16.3166C57.3775 16.6984 57.6041 16.9106 57.767 17.0821C57.9059 17.2281 57.9278 17.2726 57.9294 17.2755L62.2786 14.8088C61.7795 13.9289 61.0457 13.2819 60.3726 12.6557L56.9671 16.3166ZM63.025 17.1223C62.9398 16.3378 62.6678 15.495 62.2786 14.8088L57.9294 17.2755C57.9823 17.3688 58.0427 17.556 58.0542 17.6623L63.025 17.1223ZM27.7695 57.0226C28.5595 57.5475 29.3935 58.1377 30.495 58.4097L31.6939 53.5556C31.6666 53.5489 31.6165 53.5371 31.4614 53.4501C31.263 53.3388 31.0145 53.1756 30.5366 52.858L27.7695 57.0226ZM33.2436 52.948C32.786 53.2356 32.5591 53.3761 32.3778 53.4709C32.2442 53.5407 32.1969 53.5524 32.1556 53.5615L33.2309 58.4445C34.333 58.2018 35.1413 57.6607 35.904 57.1815L33.2436 52.948ZM30.495 58.4097C31.3365 58.6176 32.3844 58.6309 33.2309 58.4445L32.1556 53.5615C32.1598 53.5605 32.138 53.5653 32.0896 53.5696C32.043 53.5738 31.9863 53.5761 31.9245 53.5754C31.8628 53.5746 31.8061 53.5708 31.7597 53.5655C31.7114 53.5599 31.6898 53.5546 31.6939 53.5556L30.495 58.4097ZM5.68607 18.5854C5.63426 18.2052 5.61394 18.0451 5.60638 17.9209C5.6018 17.8455 5.60364 17.8103 5.61302 17.7484L0.669373 16.9998C0.532033 17.9068 0.642501 18.6049 0.731861 19.2606L5.68607 18.5854ZM3.1019 12.9524C2.53036 13.4893 1.90336 14.05 1.42892 14.8576L5.74005 17.3902C5.75115 17.3713 5.77245 17.3342 5.87363 17.2264C6.00233 17.0894 6.18018 16.9208 6.52538 16.5965L3.1019 12.9524ZM5.61302 17.7484C5.6112 17.7603 5.61291 17.7457 5.62382 17.7045C5.63411 17.6657 5.64874 17.6179 5.66711 17.5661C5.68549 17.5142 5.70427 17.4679 5.72074 17.4312C5.7382 17.3924 5.74614 17.3798 5.74005 17.3902L1.42892 14.8576C1.07092 15.467 0.775203 16.3009 0.669373 16.9998L5.61302 17.7484ZM19.9725 27.0545L26.673 32.7542L29.9127 28.9457L23.2121 23.246L19.9725 27.0545ZM32.9072 32.3658L43.9162 20.3455L40.229 16.9685L29.22 28.9888L32.9072 32.3658ZM26.673 32.7542C28.5172 34.3229 31.272 34.1513 32.9072 32.3658L29.22 28.9888C29.4017 28.7904 29.7078 28.7714 29.9127 28.9457L26.673 32.7542Z" fill="white"/>
<defs>
<linearGradient id="paint0_linear_351_1030" x1="3.104" y1="14.696" x2="51.8194" y2="44.2414" gradientUnits="userSpaceOnUse">
<stop stop-color="#017CFF"/>
<stop offset="1" stop-color="#3EC1FF"/>
</linearGradient>
</defs>
</svg>
