<svg width="46" height="52" viewBox="0 0 46 52" fill="none" xmlns="http://www.w3.org/2000/svg">
<path fill-rule="evenodd" clip-rule="evenodd" d="M22.5841 1.1982C18.0731 0.503304 13.9553 1.03727 10.4904 2.90251C7.00329 4.76775 4.34713 7.87648 2.57388 12.0312C0.941601 15.8421 0.466757 19.5653 1.23838 23.069C1.82452 25.7754 3.13034 28.2478 5.08165 30.4568C5.59359 31.042 5.74198 31.8466 5.40811 32.5488C5.00746 33.3973 4.61423 34.2531 4.221 35.1163C4.08359 35.4288 4.03315 35.7718 4.07488 36.1099C4.11661 36.448 4.24901 36.7691 4.45842 37.04C6.58038 39.8708 7.99008 43.1989 8.51686 46.7173C8.65783 47.6682 9.45913 48.4216 10.4385 48.4216H11.685C14.7269 48.4216 18.0212 49.3213 21.0335 50.8647C22.0351 51.3767 23.3038 51.011 23.7564 49.9869C24.9888 47.2264 26.1393 44.431 27.2064 41.6043C27.3466 41.2546 27.5866 40.9524 27.8974 40.7343C28.2081 40.5162 28.5763 40.3916 28.9574 40.3755C31.9252 40.2073 34.6333 39.4026 37.0075 37.9324C40.0866 36.0306 42.4608 33.0901 44.0857 29.2865C45.7922 25.3 46.2299 21.4159 45.3173 17.7878C44.4047 14.1525 42.1789 10.9559 38.8624 8.27878C38.6383 8.09707 38.374 7.96973 38.0909 7.90702C37.8078 7.8443 37.5136 7.84795 37.2322 7.91767C36.9508 7.98739 36.6898 8.12124 36.4704 8.30845C36.251 8.49567 36.0792 8.73103 35.9688 8.99562C35.8958 9.17165 35.8216 9.3472 35.7462 9.52227C35.1452 10.9267 34.5591 12.4116 34.0175 13.7794C33.6168 14.7815 33.2459 15.7251 32.9046 16.5297C32.0365 18.6144 31.25 20.2236 30.3597 21.3647C29.5065 22.4619 28.6607 23.0178 27.6665 23.1934C26.5981 23.3689 25.0548 23.1787 22.7325 22.1181C20.388 21.0502 19.2528 20.0554 18.726 19.1996C18.2437 18.4169 18.1325 17.5172 18.4144 16.2444C18.7112 14.8985 19.4234 13.3186 20.4102 11.3144L21.0483 10.0343C22.1028 7.97126 23.0853 5.87316 23.9938 3.7437C24.1087 3.48729 24.1623 3.20828 24.1503 2.92822C24.1384 2.64816 24.0614 2.37455 23.9251 2.12853C23.7889 1.8825 23.5971 1.67065 23.3646 1.50934C23.132 1.34803 22.865 1.24157 22.5841 1.1982Z" fill="url(#paint0_linear_351_1010)"/>
<defs>
<linearGradient id="paint0_linear_351_1010" x1="0.877442" y1="12.2692" x2="42.3688" y2="33.2316" gradientUnits="userSpaceOnUse">
<stop stop-color="#017CFF"/>
<stop offset="1" stop-color="#3EC1FF"/>
</linearGradient>
</defs>
</svg>
