<svg width="57" height="52" viewBox="0 0 57 52" fill="none" xmlns="http://www.w3.org/2000/svg">
<path fill-rule="evenodd" clip-rule="evenodd" d="M25.8118 1.14347C25.9762 0.791578 26.3295 0.566694 26.7179 0.566694H30.3979C30.7869 0.566694 31.1405 0.79223 31.3046 1.14489L37.3884 14.2224C37.6968 14.8853 37.2128 15.6442 36.4817 15.6442H20.609C19.8773 15.6442 19.3933 14.884 19.703 14.221L25.8118 1.14347ZM12.7657 15.6442C13.1541 15.6442 13.5074 15.4193 13.6718 15.0674L19.7806 1.98992C20.0903 1.32691 19.6064 0.566694 18.8746 0.566694H13.6308L13.5747 0.56747C12.5687 0.595086 11.5834 0.859072 10.6983 1.3381C9.81962 1.81366 9.06424 2.48797 8.49235 3.30705L1.0683 13.5873L1.05684 13.6033C0.869787 13.8677 0.704225 14.1446 0.560937 14.4315C0.267806 15.0184 0.745849 15.6442 1.40188 15.6442H12.7657ZM1.39572 21.3558C1.18597 21.1084 1.37437 20.7507 1.69875 20.7507H12.5596C12.9972 20.7507 13.384 21.0352 13.5143 21.453L19.5747 40.8838C19.9034 41.9379 18.5326 42.6687 17.8407 41.8082L1.39572 21.3558ZM19.0488 22.0485C18.848 21.4047 19.329 20.7507 20.0034 20.7507H37.0842C37.7581 20.7507 38.2391 21.4038 38.0391 22.0474L29.0467 50.9972C28.9713 51.2402 28.7543 51.415 28.4998 51.415C28.3231 51.415 28.1709 51.2955 28.1183 51.1268L19.0488 22.0485ZM44.5253 20.7507C44.0873 20.7507 43.7002 21.0358 43.5703 21.4541L37.6039 40.6618C37.2766 41.7157 38.6467 42.4451 39.3382 41.5851L55.6039 21.3559C55.8137 21.1084 55.6253 20.7507 55.3009 20.7507H44.5253ZM55.5976 15.6442C56.2536 15.6442 56.7317 15.0184 56.4386 14.4314C56.2954 14.1446 56.1299 13.8677 55.943 13.6033L55.9316 13.5873L48.5072 3.30705C47.9353 2.48793 47.18 1.81366 46.3014 1.3381C45.4162 0.859072 44.4309 0.595086 43.4248 0.56747L38.2356 0.566874C37.5045 0.56679 37.0204 1.32574 37.3288 1.98867L43.4123 15.066C43.5764 15.4187 43.9301 15.6442 44.319 15.6442H55.5976Z" fill="url(#paint0_linear_351_1066)"/>
<defs>
<linearGradient id="paint0_linear_351_1066" x1="0.103517" y1="12.0789" x2="47.2287" y2="41.7989" gradientUnits="userSpaceOnUse">
<stop stop-color="#017CFF"/>
<stop offset="1" stop-color="#3EC1FF"/>
</linearGradient>
</defs>
</svg>
