<svg width="53" height="56" viewBox="0 0 53 56" fill="none" xmlns="http://www.w3.org/2000/svg">
<path d="M22.4673 10.5938L16.8344 23.8149C16.6122 24.3365 16.5011 24.5973 16.3403 24.823C16.1976 25.0232 16.0265 25.2025 15.8321 25.3554C15.6129 25.5278 15.3545 25.6542 14.8377 25.9069L14.1041 26.2656C13.6733 26.4762 13.4579 26.5816 13.3034 26.7418C13.1668 26.8834 13.0649 27.055 13.0058 27.2431C12.9389 27.4559 12.949 27.6964 12.9692 28.1775L13.8484 49.129C13.8697 49.6375 13.8804 49.8917 13.9724 50.1066C14.0538 50.2964 14.18 50.4634 14.3401 50.593C14.5213 50.7398 14.7621 50.8183 15.2438 50.9753L18.2105 51.9424C18.4521 52.0211 18.5729 52.0605 18.6963 52.0882C18.806 52.1128 18.9172 52.1304 19.0292 52.141C19.1553 52.153 19.2826 52.153 19.5373 52.153H43.3524C43.7756 52.153 43.9876 52.153 44.1442 52.1344C45.7267 51.9475 46.774 50.4346 46.3638 48.9283C46.3232 48.7791 46.2445 48.5868 46.0873 48.2024C45.9839 47.9496 45.9322 47.8231 45.8979 47.7104C45.5611 46.602 46.0244 45.4102 47.0291 44.8006C47.1313 44.7386 47.2559 44.6777 47.5049 44.5559L47.594 44.5123C47.9519 44.3373 48.1319 44.2493 48.2725 44.1567C49.2595 43.5063 49.675 42.2874 49.2843 41.188C49.2286 41.0312 49.139 40.8558 48.9598 40.5053L48.8961 40.3808C48.6937 39.9849 48.5925 39.7869 48.5312 39.6008C48.2328 38.6942 48.4726 37.7005 49.1541 37.0202C49.294 36.8805 49.4751 36.7477 49.8372 36.4821L50.4081 36.0634C50.5185 35.9823 50.574 35.9417 50.6174 35.9069C51.7826 34.9734 51.9061 33.274 50.8876 32.1887C50.8496 32.1483 50.8007 32.1005 50.703 32.0049C50.6275 31.9311 50.5894 31.8938 50.5575 31.8603C49.7164 30.9768 49.6192 29.6392 50.3241 28.6482C50.3508 28.6107 50.3832 28.5684 50.4472 28.485L51.392 27.253C51.9568 26.5165 52.2392 26.1483 52.3739 25.739C52.493 25.3772 52.5283 24.9939 52.4774 24.6171C52.4197 24.1909 52.2092 23.7792 51.7882 22.9558L51.4853 22.3631C51.0643 21.5397 50.8538 21.128 50.5397 20.8272C50.262 20.5612 49.9273 20.3589 49.5599 20.235C49.1443 20.0948 48.6737 20.0948 47.7323 20.0948H36.0313C34.1995 20.0948 33.2836 20.0948 32.6572 19.7236C32.1081 19.3983 31.7001 18.8873 31.5106 18.2875C31.2943 17.6031 31.5164 16.7341 31.9607 14.9961L32.9033 11.3089C33.0427 10.7637 33.1123 10.4911 33.1214 10.2177C33.1294 9.97506 33.1022 9.73257 33.0406 9.49746C32.9711 9.23241 32.8425 8.98106 32.5856 8.47851L29.2601 1.97406C28.9903 1.44633 28.8554 1.18244 28.6888 0.975955C28.1683 0.330889 27.3633 -0.0312128 26.5237 0.00211523C26.255 0.0127837 25.9623 0.0843363 25.377 0.227442C24.8061 0.367031 24.5206 0.436826 24.2827 0.547928C23.5397 0.894801 23.0065 1.56274 22.8426 2.35176C22.7901 2.60448 22.7901 2.89225 22.7901 3.46779V9.01553C22.7901 9.32207 22.79 9.47534 22.7717 9.62633C22.7554 9.76045 22.7282 9.89311 22.6905 10.0231C22.6481 10.1693 22.5878 10.3109 22.4673 10.5938Z" fill="url(#paint0_linear_351_1089)"/>
<path d="M0.5 26.763C0.5 25.3266 0.5 24.6085 0.785827 24.0599C1.03725 23.5773 1.43843 23.1849 1.93187 22.9391C2.49284 22.6595 3.22719 22.6595 4.69588 22.6595H6.79383C8.26252 22.6595 8.99687 22.6595 9.55784 22.9391C10.0513 23.1849 10.4525 23.5773 10.7039 24.0599C10.9897 24.6085 10.9897 25.3266 10.9897 26.763V51.8966C10.9897 53.3329 10.9897 54.0511 10.7039 54.5997C10.4525 55.0822 10.0513 55.4746 9.55784 55.7205C8.99687 56 8.26252 56 6.79383 56H4.69588C3.22719 56 2.49284 56 1.93187 55.7205C1.43843 55.4746 1.03725 55.0822 0.785827 54.5997C0.5 54.0511 0.5 53.3329 0.5 51.8966V26.763Z" fill="url(#paint1_linear_351_1089)"/>
<defs>
<linearGradient id="paint0_linear_351_1089" x1="0.500001" y1="12.6792" x2="47.805" y2="37.4826" gradientUnits="userSpaceOnUse">
<stop stop-color="#017CFF"/>
<stop offset="1" stop-color="#3EC1FF"/>
</linearGradient>
<linearGradient id="paint1_linear_351_1089" x1="0.500001" y1="12.6792" x2="47.805" y2="37.4826" gradientUnits="userSpaceOnUse">
<stop stop-color="#017CFF"/>
<stop offset="1" stop-color="#3EC1FF"/>
</linearGradient>
</defs>
</svg>
