<svg width="104" height="104" viewBox="0 0 104 104" fill="none" xmlns="http://www.w3.org/2000/svg">
<path d="M31 25.4848V84.2C31 88.6804 31 90.9206 31.8719 92.6319C32.6389 94.1372 33.8628 95.3611 35.3681 96.1281C37.0794 97 39.3196 97 43.8 97H70.2C74.6804 97 76.9206 97 78.6319 96.1281C80.1372 95.3611 81.3611 94.1372 82.1281 92.6319C83 90.9206 83 88.6804 83 84.2V29.8C83 25.3196 83 23.0794 82.1281 21.3681C81.3611 19.8628 80.1372 18.6389 78.6319 17.8719C76.9206 17 74.6804 17 70.2 17H39.4848C39.0347 17 38.8096 17 38.6193 17.0091C34.5003 17.2053 31.2053 20.5003 31.0091 24.6193C31 24.8096 31 25.0347 31 25.4848V25.4848ZM31 25.4848L61.9524 47.303M47.0952 50.9394L63.1905 61.8485" stroke="#A1A9AE" stroke-width="3"/>
<rect x="21" y="7" width="52" height="80" rx="8" stroke="#142835" stroke-width="3"/>
</svg>
