<svg width="104" height="104" viewBox="0 0 104 104" fill="none" xmlns="http://www.w3.org/2000/svg">
<path d="M33.3129 68.092H70.6879M23.2424 55.1146H29.4716M36.1161 55.1146H42.3452M48.8858 55.1146H55.115M61.7595 55.1146H67.9886M74.5292 55.1146H80.7584M23.2424 42.1371H29.4716M36.1161 42.1371H42.3452M48.8858 42.1371H55.115M61.7595 42.1371H67.9886M74.5292 42.1371H80.7584M93.5282 74.6694V29.3305C93.5282 27.0903 93.5282 25.9702 93.0922 25.1146C92.7087 24.3619 92.0968 23.75 91.3442 23.3665C90.4885 22.9305 89.3684 22.9305 87.1282 22.9305H16.8727C14.6324 22.9305 13.5123 22.9305 12.6567 23.3665C11.904 23.75 11.2921 24.3619 10.9086 25.1146C10.4727 25.9702 10.4727 27.0903 10.4727 29.3305V74.6694C10.4727 76.9096 10.4727 78.0298 10.9086 78.8854C11.2921 79.638 11.904 80.25 12.6567 80.6335C13.5123 81.0694 14.6324 81.0694 16.8726 81.0694H87.1282C89.3684 81.0694 90.4885 81.0694 91.3442 80.6335C92.0968 80.25 92.7087 79.638 93.0922 78.8854C93.5282 78.0298 93.5282 76.9096 93.5282 74.6694Z" stroke="#142835" stroke-width="3" stroke-linecap="round" stroke-linejoin="round"/>
</svg>
