<svg width="104" height="104" viewBox="0 0 104 104" fill="none" xmlns="http://www.w3.org/2000/svg">
<path d="M97 52C97 76.8528 76.8528 97 52 97C27.1472 97 7 76.8528 7 52C7 27.1472 27.1472 7 52 7C76.8528 7 97 27.1472 97 52Z" stroke="#142835" stroke-width="3"/>
<path d="M87.7692 52C87.7692 71.7548 71.7548 87.7692 52 87.7692C32.2452 87.7692 16.2308 71.7548 16.2308 52C16.2308 32.2452 32.2452 16.2308 52 16.2308C71.7548 16.2308 87.7692 32.2452 87.7692 52Z" stroke="#142835" stroke-width="3"/>
<path d="M62.3846 52C62.3846 57.7353 57.7353 62.3846 52 62.3846C46.2647 62.3846 41.6154 57.7353 41.6154 52C41.6154 46.2647 46.2647 41.6154 52 41.6154C57.7353 41.6154 62.3846 46.2647 62.3846 52Z" stroke="#142835" stroke-width="3"/>
<path d="M72.7692 39.3077C72.7692 41.8567 70.7029 43.9231 68.1538 43.9231C65.6048 43.9231 63.5385 41.8567 63.5385 39.3077C63.5385 36.7587 65.6048 34.6923 68.1538 34.6923C70.7029 34.6923 72.7692 36.7587 72.7692 39.3077Z" stroke="#142835" stroke-width="3"/>
</svg>
