<svg width="104" height="104" viewBox="0 0 104 104" fill="none" xmlns="http://www.w3.org/2000/svg">
<path d="M31.4176 33.7158H23.1128V42.0158M31.4176 33.7158V22.6105M31.4176 33.7158H46.7159M46.7159 33.7158V22.6105M46.7159 33.7158H55.4578M23.1128 71.7211V81.7684H31.4176M23.1128 71.7211V57.3053M23.1128 71.7211H12M23.1128 57.3053V42.0158M23.1128 57.3053H12M23.1128 42.0158H12M61.5771 81.7684H72.0674V71.7211M61.5771 81.7684H46.7159M61.5771 81.7684V92M46.7159 81.7684H31.4176M46.7159 81.7684V92M31.4176 81.7684V92M76.5982 11C85.0487 18.8632 100.201 38.4336 93.2078 53.8105C85.2608 71.2842 64.3227 67.0073 59.1144 55.9947C54.7759 46.8211 57.8362 36.3368 68.2934 31.0947V41.5789C72.373 40.5596 79.7454 33.0168 76.5982 11Z" stroke="#142835" stroke-width="3" stroke-linecap="round" stroke-linejoin="round"/>
</svg>
