<svg width="104" height="104" viewBox="0 0 104 104" fill="none" xmlns="http://www.w3.org/2000/svg">
<path d="M30 14.2824C30 11.0333 30 9.4087 30.6329 8.16769C31.1895 7.07606 32.0778 6.18854 33.1704 5.63233C34.4124 5 36.0384 5 39.2903 5H65.7097C68.9616 5 70.5876 5 71.8296 5.63233C72.9222 6.18854 73.8105 7.07606 74.3671 8.16769C75 9.4087 75 11.0333 75 14.2824V90.7176C75 93.9667 75 95.5913 74.3671 96.8323C73.8105 97.9239 72.9222 98.8115 71.8296 99.3677C70.5876 100 68.9616 100 65.7097 100H39.2903C36.0384 100 34.4124 100 33.1704 99.3677C32.0778 98.8115 31.1895 97.9239 30.6329 96.8323C30 95.5913 30 93.9667 30 90.7176V14.2824Z" stroke="#142835" stroke-width="3"/>
<path d="M43.7903 13.7023C43.7903 16.1054 41.8406 18.0534 39.4355 18.0534C37.0304 18.0534 35.0806 16.1054 35.0806 13.7023C35.0806 11.2992 37.0304 9.35114 39.4355 9.35114C41.8406 9.35114 43.7903 11.2992 43.7903 13.7023Z" stroke="#142835" stroke-width="3"/>
<path d="M56.129 20.229C56.129 22.6321 54.1793 24.5802 51.7742 24.5802C49.3691 24.5802 47.4194 22.6321 47.4194 20.229C47.4194 17.8259 49.3691 15.8779 51.7742 15.8779C54.1793 15.8779 56.129 17.8259 56.129 20.229Z" stroke="#142835" stroke-width="3"/>
<path d="M43.7903 26.7557C43.7903 29.1588 41.8406 31.1069 39.4355 31.1069C37.0304 31.1069 35.0806 29.1588 35.0806 26.7557C35.0806 24.3527 37.0304 22.4046 39.4355 22.4046C41.8406 22.4046 43.7903 24.3527 43.7903 26.7557Z" stroke="#142835" stroke-width="3"/>
</svg>
