<svg width="104" height="104" viewBox="0 0 104 104" fill="none" xmlns="http://www.w3.org/2000/svg">
<path d="M92 48.4103V22.4C92 20.1598 92 19.0397 91.564 18.184C91.1805 17.4314 90.5686 16.8195 89.816 16.436C88.9603 16 87.8402 16 85.6 16H18.4C16.1598 16 15.0397 16 14.184 16.436C13.4314 16.8195 12.8195 17.4314 12.436 18.184C12 19.0397 12 20.1598 12 22.4V82.5231C12 84.7633 12 85.8834 12.436 86.739C12.8195 87.4917 13.4314 88.1036 14.184 88.4871C15.0397 88.9231 16.1598 88.9231 18.4 88.9231H38M92 32.2051H12M82 86.8974L92 95M96 76.7692H82M82 66.641L92 58.5385M58 86.8974L48 95M58 76.7692H44M58 66.641L48 58.5385M70 58.5385C64.3079 58.5385 60.6409 62.0373 58.9987 64.0562C58.7579 64.3522 58.6375 64.5003 58.4483 64.8654C58.3195 65.114 58.1406 65.6175 58.0836 65.8917C58 66.2942 58 66.5856 58 67.1684V84.9902C58 86.4183 58 87.1324 58.2166 87.7635C58.4082 88.3217 58.7209 88.8306 59.1323 89.2537C59.5975 89.7321 60.2346 90.0547 61.5086 90.6999L67.1086 93.5358C68.1682 94.0724 68.698 94.3407 69.2544 94.4462C69.7471 94.5397 70.2529 94.5397 70.7456 94.4462C71.302 94.3407 71.8318 94.0724 72.8914 93.5358L78.4914 90.6999C79.7654 90.0547 80.4025 89.7321 80.8677 89.2537C81.2791 88.8306 81.5918 88.3217 81.7834 87.7635C82 87.1324 82 86.4183 82 84.9902V67.1684C82 66.5856 82 66.2942 81.9164 65.8917C81.8594 65.6175 81.6805 65.114 81.5517 64.8654C81.3625 64.5003 81.2421 64.3522 81.0013 64.0562C79.3591 62.0373 75.6921 58.5385 70 58.5385Z" stroke="#142835" stroke-width="3" stroke-linecap="round" stroke-linejoin="round"/>
</svg>
