<svg width="104" height="104" viewBox="0 0 104 104" fill="none" xmlns="http://www.w3.org/2000/svg">
<circle cx="52.5" cy="52.5" r="45.5" stroke="#142835" stroke-width="3"/>
<path d="M37 39.128V31.192H38.76V32.232C39.016 31.848 39.352 31.5493 39.768 31.336C40.1947 31.112 40.6693 31 41.192 31C41.8107 31 42.3387 31.1227 42.776 31.368C43.224 31.6133 43.5707 31.9813 43.816 32.472C44.104 32.0133 44.488 31.656 44.968 31.4C45.4587 31.1333 45.992 31 46.568 31C47.56 31 48.3333 31.304 48.888 31.912C49.4533 32.5093 49.736 33.4 49.736 34.584V39.128H47.992V34.76C47.992 34.0133 47.8427 33.4533 47.544 33.08C47.256 32.696 46.824 32.504 46.248 32.504C45.6613 32.504 45.1813 32.7227 44.808 33.16C44.4453 33.5973 44.264 34.2213 44.264 35.032V39.128H42.504V34.76C42.504 34.0133 42.3547 33.4533 42.056 33.08C41.7573 32.696 41.32 32.504 40.744 32.504C40.168 32.504 39.6933 32.7227 39.32 33.16C38.9467 33.5973 38.76 34.2213 38.76 35.032V39.128H37Z" fill="#142835"/>
<path d="M53.9986 39.32C53.38 39.32 52.852 39.2133 52.4146 39C51.988 38.776 51.6626 38.4827 51.4386 38.12C51.2253 37.7573 51.1186 37.3627 51.1186 36.936C51.1186 36.0933 51.4226 35.4427 52.0306 34.984C52.6386 34.5253 53.4386 34.296 54.4306 34.296C54.8786 34.296 55.2786 34.3333 55.6306 34.408C55.9826 34.472 56.2706 34.5413 56.4946 34.616V34.248C56.4946 33.6293 56.324 33.1707 55.9826 32.872C55.652 32.5733 55.2093 32.424 54.6546 32.424C54.2386 32.424 53.8706 32.5093 53.5506 32.68C53.2306 32.8507 53.028 33.1493 52.9426 33.576H51.2466C51.3106 33 51.5026 32.5253 51.8226 32.152C52.1533 31.768 52.564 31.48 53.0546 31.288C53.5453 31.096 54.0786 31 54.6546 31C55.8066 31 56.692 31.288 57.3106 31.864C57.94 32.44 58.2546 33.2347 58.2546 34.248V36.328C58.2546 36.7333 58.276 37.0267 58.3186 37.208C58.372 37.3893 58.452 37.5067 58.5586 37.56C58.676 37.6027 58.8306 37.624 59.0226 37.624H59.1026V39.128H58.7186C58.1853 39.128 57.7373 39.048 57.3746 38.888C57.0226 38.728 56.7773 38.408 56.6386 37.928C56.3826 38.3227 56.036 38.6533 55.5986 38.92C55.1613 39.1867 54.628 39.32 53.9986 39.32ZM54.3506 37.944C54.756 37.944 55.1026 37.848 55.3906 37.656C55.6786 37.4533 55.908 37.192 56.0786 36.872C56.26 36.5413 56.372 36.1893 56.4146 35.816C56.18 35.752 55.9026 35.688 55.5826 35.624C55.2626 35.56 54.9373 35.528 54.6066 35.528C54.0413 35.528 53.6146 35.6453 53.3266 35.88C53.0386 36.1147 52.8946 36.424 52.8946 36.808C52.8946 37.1387 53.0226 37.4107 53.2786 37.624C53.5346 37.8373 53.892 37.944 54.3506 37.944Z" fill="#142835"/>
<path d="M63.8675 39.32C63.0782 39.32 62.3742 39.144 61.7555 38.792C61.1475 38.44 60.6675 37.9547 60.3155 37.336C59.9635 36.7067 59.7875 35.9813 59.7875 35.16C59.7875 34.3387 59.9635 33.6187 60.3155 33C60.6675 32.3707 61.1475 31.88 61.7555 31.528C62.3742 31.176 63.0782 31 63.8675 31C64.8488 31 65.6755 31.256 66.3475 31.768C67.0195 32.28 67.4462 32.9787 67.6275 33.864H65.8035C65.6968 33.4373 65.4675 33.1067 65.1155 32.872C64.7635 32.6267 64.3422 32.504 63.8515 32.504C63.4568 32.504 63.0835 32.6107 62.7315 32.824C62.3902 33.0267 62.1128 33.3253 61.8995 33.72C61.6968 34.104 61.5955 34.584 61.5955 35.16C61.5955 35.7253 61.6968 36.2107 61.8995 36.616C62.1128 37.0107 62.3902 37.3093 62.7315 37.512C63.0835 37.7147 63.4568 37.816 63.8515 37.816C64.3422 37.816 64.7635 37.6987 65.1155 37.464C65.4675 37.2293 65.6968 36.8933 65.8035 36.456H67.6275C67.4568 37.3093 67.0302 38.0027 66.3475 38.536C65.6755 39.0587 64.8488 39.32 63.8675 39.32Z" fill="#142835"/>
<path d="M41.148 73.8319C38.5387 73.8319 36.246 73.2619 34.27 72.1219C32.294 70.9566 30.7487 69.3479 29.634 67.2959C28.5447 65.2186 28 62.8119 28 60.0759C28 57.3653 28.5447 54.9839 29.634 52.9319C30.7487 50.8546 32.294 49.2333 34.27 48.0679C36.246 46.9026 38.5387 46.3199 41.148 46.3199C43.7827 46.3199 46.0753 46.9026 48.026 48.0679C50.002 49.2333 51.5347 50.8546 52.624 52.9319C53.7387 54.9839 54.296 57.3653 54.296 60.0759C54.296 62.8119 53.7387 65.2186 52.624 67.2959C51.5347 69.3479 50.002 70.9566 48.026 72.1219C46.0753 73.2619 43.7827 73.8319 41.148 73.8319ZM41.148 70.7919C43.0733 70.7919 44.758 70.3739 46.202 69.5379C47.646 68.6766 48.7733 67.4479 49.584 65.8519C50.3947 64.2306 50.8 62.3053 50.8 60.0759C50.8 57.8466 50.3947 55.9339 49.584 54.3379C48.7733 52.7419 47.646 51.5133 46.202 50.6519C44.758 49.7906 43.0733 49.3599 41.148 49.3599C39.248 49.3599 37.5633 49.7906 36.094 50.6519C34.65 51.5133 33.5227 52.7419 32.712 54.3379C31.9267 55.9339 31.534 57.8466 31.534 60.0759C31.534 62.3053 31.9267 64.2306 32.712 65.8519C33.5227 67.4479 34.65 68.6766 36.094 69.5379C37.5633 70.3739 39.248 70.7919 41.148 70.7919Z" fill="#142835"/>
<path d="M66.7265 73.8319C65.3838 73.8319 64.1045 73.6546 62.8885 73.2999C61.6725 72.9453 60.5831 72.4133 59.6205 71.7039C58.6578 70.9946 57.8725 70.0953 57.2645 69.0059C56.6818 67.8913 56.3525 66.5866 56.2765 65.0919H59.6205C59.7471 66.4599 60.1398 67.5746 60.7985 68.4359C61.4571 69.2719 62.3058 69.8926 63.3445 70.2979C64.4085 70.6779 65.5485 70.8679 66.7645 70.8679C67.9045 70.8679 68.9558 70.7033 69.9185 70.3739C70.8811 70.0446 71.6411 69.5253 72.1985 68.8159C72.7811 68.0813 73.0725 67.1439 73.0725 66.0039C73.0725 65.0159 72.7811 64.1419 72.1985 63.3819C71.6411 62.6219 70.6025 62.1026 69.0825 61.8239L63.7625 60.8359C61.8371 60.4813 60.2791 59.6959 59.0885 58.4799C57.8978 57.2386 57.3025 55.7439 57.3025 53.9959C57.3025 52.3746 57.7205 50.9939 58.5565 49.8539C59.4178 48.7139 60.5451 47.8399 61.9385 47.2319C63.3571 46.6239 64.8771 46.3199 66.4985 46.3199C68.2211 46.3199 69.7665 46.6239 71.1345 47.2319C72.5025 47.8146 73.6045 48.7013 74.4405 49.8919C75.3018 51.0573 75.8085 52.5139 75.9605 54.2619H72.5785C72.4518 53.0966 72.1098 52.1593 71.5525 51.4499C71.0205 50.7153 70.3238 50.1706 69.4625 49.8159C68.6011 49.4613 67.6258 49.2839 66.5365 49.2839C65.4725 49.2839 64.4971 49.4486 63.6105 49.7779C62.7238 50.1073 62.0018 50.6013 61.4445 51.2599C60.8871 51.9186 60.6085 52.7546 60.6085 53.7679C60.6085 54.8066 60.9885 55.6806 61.7485 56.3899C62.5085 57.0739 63.5218 57.5426 64.7885 57.7959L69.8045 58.7079C71.9578 59.1133 73.5918 59.9239 74.7065 61.1399C75.8465 62.3559 76.4165 63.9266 76.4165 65.8519C76.4165 67.2199 76.1378 68.3979 75.5805 69.3859C75.0485 70.3739 74.3265 71.1973 73.4145 71.8559C72.5025 72.5146 71.4638 73.0086 70.2985 73.3379C69.1585 73.6673 67.9678 73.8319 66.7265 73.8319Z" fill="#142835"/>
</svg>
