<svg width="104" height="104" viewBox="0 0 104 104" fill="none" xmlns="http://www.w3.org/2000/svg">
<path d="M11 23.0728V43.7394M11 43.7394H31.6017M11 43.7394L30.0253 25.815C35.6875 20.1475 43.0333 16.4785 50.956 15.3609C58.8787 14.2433 66.9491 15.7376 73.9511 19.6186C80.9531 23.4996 86.5075 29.5571 89.7773 36.8784C93.0472 44.1997 93.8553 52.3881 92.08 60.21C90.3048 68.0318 86.0422 75.0633 79.9346 80.245C73.827 85.4267 66.2053 88.4779 58.2178 88.9389C50.2303 89.3998 42.3097 87.2455 35.6495 82.8006C28.9893 78.3557 23.9503 71.8609 21.2917 64.2949M56 33V54L68 65" stroke="#142835" stroke-width="3" stroke-linecap="round" stroke-linejoin="round"/>
</svg>
