<svg width="104" height="104" viewBox="0 0 104 104" fill="none" xmlns="http://www.w3.org/2000/svg">
<path d="M7 86.5H97M58.5 52.4705C60.6629 50.3001 62 47.3062 62 44C62 37.3726 56.6274 32 50 32C43.3726 32 38 37.3726 38 44C38 50.6274 43.3726 56 50 56C53.3212 56 56.3273 54.6508 58.5 52.4705ZM58.5 52.4705L64.5 58.5M24.8 75H79.2C83.6804 75 85.9206 75 87.6319 74.1281C89.1372 73.3611 90.3611 72.1372 91.1281 70.6319C92 68.9206 92 66.6804 92 62.2V28.8C92 24.3196 92 22.0794 91.1281 20.3681C90.3611 18.8628 89.1372 17.6389 87.6319 16.8719C85.9206 16 83.6804 16 79.2 16H24.8C20.3196 16 18.0794 16 16.3681 16.8719C14.8628 17.6389 13.6389 18.8628 12.8719 20.3681C12 22.0794 12 24.3196 12 28.8V62.2C12 66.6804 12 68.9206 12.8719 70.6319C13.6389 72.1372 14.8628 73.3611 16.3681 74.1281C18.0794 75 20.3196 75 24.8 75Z" stroke="#142835" stroke-width="3" stroke-linecap="round" stroke-linejoin="round"/>
</svg>
