<svg width="104" height="104" viewBox="0 0 104 104" fill="none" xmlns="http://www.w3.org/2000/svg">
<path d="M76.375 72.3125V76.375M66.2188 72.3125V76.375M56.0625 72.3125V76.375M45.9062 72.3125V76.375M90.8107 66.1428L80.4375 24.0405C78.4062 17.5882 74.7687 15.4375 70.2812 15.4375H33.7188C29.2314 15.4375 25.5938 17.5882 23.5625 24.0405L13.1895 66.1428M90.8107 66.1428C88.3748 61.553 83.7326 58.4521 78.4062 58.4521H25.5938C20.2675 58.4521 15.6253 61.553 13.1895 66.1428M90.8107 66.1428C91.9661 68.3199 92.625 70.8321 92.625 73.5073C92.625 81.822 86.2591 88.5625 78.4062 88.5625H25.5938C17.7409 88.5625 11.375 81.822 11.375 73.5073C11.375 70.8321 12.034 68.3199 13.1895 66.1428" stroke="#142835" stroke-width="3" stroke-linecap="round"/>
</svg>
