<svg width="104" height="104" viewBox="0 0 104 104" fill="none" xmlns="http://www.w3.org/2000/svg">
<path d="M13 45.512V28.0377C13 26.5498 13 25.8058 13.2747 25.2089C13.5167 24.6829 13.9058 24.2382 14.3949 23.9284C14.9501 23.5769 15.6874 23.478 17.1621 23.2803H17.1621L39.3662 20.3032C41.2437 20.0515 42.1825 19.9256 42.9111 20.2149C43.5508 20.4689 44.0838 20.9351 44.4205 21.5355C44.8041 22.2192 44.8041 23.1663 44.8041 25.0606V45.512C44.8041 47.1922 44.8041 48.0322 44.4771 48.674C44.1895 49.2384 43.7305 49.6974 43.1661 49.985C42.5243 50.312 41.6842 50.312 40.0041 50.312H17.8C16.1198 50.312 15.2798 50.312 14.638 49.985C14.0735 49.6974 13.6146 49.2384 13.327 48.674C13 48.0322 13 47.1922 13 45.512Z" stroke="#142835" stroke-width="3"/>
<path d="M48.8906 45.512V22.8811C48.8906 21.3945 48.8906 20.6512 49.165 20.0546C49.4067 19.5289 49.7953 19.0843 50.2839 18.7744C50.8385 18.4227 51.5751 18.3232 53.0484 18.1243L85.5577 13.7348C87.4365 13.4811 88.376 13.3543 89.1052 13.6433C89.7455 13.897 90.2789 14.3633 90.616 14.9638C91 15.6479 91 16.5958 91 18.4917V45.512C91 47.1922 91 48.0322 90.673 48.674C90.3854 49.2384 89.9265 49.6974 89.362 49.985C88.7202 50.312 87.8802 50.312 86.2 50.312H53.6906C52.0105 50.312 51.1704 50.312 50.5287 49.985C49.9642 49.6974 49.5052 49.2384 49.2176 48.674C48.8906 48.0322 48.8906 47.1922 48.8906 45.512Z" stroke="#142835" stroke-width="3"/>
<path d="M48.8906 80.7985V59.1987C48.8906 57.5185 48.8906 56.6784 49.2176 56.0367C49.5052 55.4722 49.9642 55.0133 50.5287 54.7257C51.1704 54.3987 52.0105 54.3987 53.6906 54.3987H86.2C87.8802 54.3987 88.7202 54.3987 89.362 54.7257C89.9265 55.0133 90.3854 55.4722 90.673 56.0367C91 56.6784 91 57.5185 91 59.1987V85.4622C91 87.3723 91 88.3273 90.6124 89.0139C90.2721 89.6165 89.7339 90.083 89.089 90.3343C88.3544 90.6205 87.4091 90.4848 85.5184 90.2136L53.009 85.5498C51.5487 85.3403 50.8185 85.2356 50.2693 84.8828C49.7853 84.5719 49.4009 84.1284 49.1619 83.6052C48.8906 83.0114 48.8906 82.2738 48.8906 80.7985Z" stroke="#142835" stroke-width="3"/>
<path d="M44.8041 79.3807V59.1987C44.8041 57.5185 44.8041 56.6784 44.4771 56.0367C44.1895 55.4722 43.7305 55.0133 43.1661 54.7257C42.5243 54.3987 41.6842 54.3987 40.0041 54.3987H17.8C16.1198 54.3987 15.2798 54.3987 14.638 54.7257C14.0735 55.0133 13.6146 55.4722 13.327 56.0367C13 56.6784 13 57.5185 13 59.1987V76.0315C13 77.4969 13 78.2297 13.2685 78.8209C13.5052 79.342 13.8859 79.7845 14.3659 80.0962C14.9105 80.4499 15.635 80.5592 17.0841 80.7778L39.2882 84.127C41.1892 84.4137 42.1397 84.5571 42.879 84.2734C43.5279 84.0243 44.0702 83.5577 44.4133 82.9532C44.8041 82.2644 44.8041 81.3032 44.8041 79.3807Z" stroke="#142835" stroke-width="3"/>
</svg>
