<svg width="104" height="104" viewBox="0 0 104 104" fill="none" xmlns="http://www.w3.org/2000/svg">
<path d="M30 40H74M30 72.5H74M39.6 96H64.4C67.7603 96 69.4405 96 70.7239 95.346C71.8529 94.7708 72.7708 93.8529 73.346 92.7239C74 91.4405 74 89.7603 74 86.4V25.6C74 22.2397 74 20.5595 73.346 19.2761C72.7708 18.1471 71.8529 17.2292 70.7239 16.654C69.4405 16 67.7603 16 64.4 16H39.6C36.2397 16 34.5595 16 33.2761 16.654C32.1471 17.2292 31.2292 18.1471 30.654 19.2761C30 20.5595 30 22.2397 30 25.6V86.4C30 89.7603 30 91.4405 30.654 92.7239C31.2292 93.8529 32.1471 94.7708 33.2761 95.346C34.5595 96 36.2397 96 39.6 96ZM62 16V15.4C62 13.1598 62 12.0397 61.564 11.184C61.1805 10.4314 60.5686 9.81947 59.816 9.43597C58.9603 9 57.8402 9 55.6 9H48.4C46.1598 9 45.0397 9 44.184 9.43597C43.4314 9.81947 42.8195 10.4314 42.436 11.184C42 12.0397 42 13.1598 42 15.4V16H62Z" stroke="#142835" stroke-width="3"/>
</svg>
