<svg width="60" height="60" viewBox="0 0 60 60" fill="none" xmlns="http://www.w3.org/2000/svg">
<path d="M26.8029 10.5737H33.1963M22.1373 55.0819H38.3537C40.5939 55.0819 41.714 55.0819 42.5697 54.6459C43.3223 54.2625 43.9342 53.6505 44.3177 52.8979C44.7537 52.0422 44.7537 50.9221 44.7537 48.6819V11.8098C44.7537 9.56958 44.7537 8.44947 44.3177 7.59383C43.9342 6.84118 43.3223 6.22926 42.5697 5.84576C41.714 5.40979 40.5939 5.40979 38.3537 5.40979H22.1373C19.8971 5.40979 18.777 5.40979 17.9213 5.84576C17.1687 6.22926 16.5568 6.84118 16.1733 7.59383C15.7373 8.44947 15.7373 9.56958 15.7373 11.8098V48.6819C15.7373 50.9221 15.7373 52.0422 16.1733 52.8979C16.5568 53.6505 17.1687 54.2625 17.9213 54.6459C18.777 55.0819 19.8971 55.0819 22.1373 55.0819Z" stroke="white" stroke-width="2" stroke-linecap="round" stroke-linejoin="round"/>
<path d="M27.7042 35C28.3758 34.5455 29.1794 34.3013 30.0033 34.3013C30.8272 34.3013 31.6308 34.5455 32.3025 35M25.3686 31.7564C26.6764 30.7189 28.3245 30.1507 30.0265 30.1507C31.7284 30.1507 33.3766 30.7189 34.6843 31.7564M23 28.5192C24.9336 26.8957 27.4225 26 30 26C32.5775 26 35.0664 26.8957 37 28.5192" stroke="white" stroke-width="2" stroke-linecap="round" stroke-linejoin="round"/>
</svg>
