<svg width="60" height="60" viewBox="0 0 60 60" fill="none" xmlns="http://www.w3.org/2000/svg">
<path d="M20 42.5L30 52.5M30 52.5L40 42.5M30 52.5V30M52.2 45.225C54.3734 43.6966 56.0034 41.5153 56.8532 38.9978C57.703 36.4803 57.7285 33.7575 56.9259 31.2245C56.1234 28.6915 54.5346 26.4802 52.3901 24.9114C50.2456 23.3425 47.657 22.4979 45 22.5H41.85C41.0981 19.5696 39.6912 16.8481 37.7353 14.5402C35.7793 12.2322 33.3253 10.3981 30.558 9.17584C27.7906 7.95357 24.7821 7.37502 21.7588 7.48375C18.7355 7.59247 15.7762 8.38563 13.1038 9.80352C10.4314 11.2214 8.11552 13.2271 6.33042 15.6695C4.54533 18.112 3.33758 20.9276 2.79811 23.9043C2.25863 26.8811 2.40148 29.9414 3.2159 32.855C4.03033 35.7686 5.4951 38.4594 7.49995 40.725" stroke="white" stroke-width="2" stroke-linecap="round" stroke-linejoin="round"/>
</svg>
