<svg width="60" height="60" viewBox="0 0 60 60" fill="none" xmlns="http://www.w3.org/2000/svg">
<path d="M5.39062 12.0937C5.39063 13.8715 7.27717 15.5765 10.6352 16.8336C13.9933 18.0906 18.5478 18.7969 23.2969 18.7969C28.0459 18.7969 32.6004 18.0906 35.9585 16.8336C39.3166 15.5765 41.2031 13.8715 41.2031 12.0937C41.2031 10.316 39.3166 8.611 35.9585 7.35392C32.6004 6.09684 28.0459 5.39063 23.2969 5.39062C18.5478 5.39063 13.9933 6.09684 10.6352 7.35392C7.27717 8.611 5.39063 10.316 5.39062 12.0937ZM5.39062 12.0937V23.2969M5.39062 23.2969C5.39062 25.6406 8.57812 27.6797 13.3828 28.875C16.6308 29.6444 19.9591 30.022 23.2969 30C24.7923 30.0059 26.2868 29.9277 27.7734 29.7656M5.39062 23.2969V45.6562C5.39062 49.3828 13.4063 52.3828 23.2969 52.3828C26.0979 52.3994 28.8934 52.1324 31.6406 51.5859M5.39062 34.4766C5.39062 38.1797 13.4063 41.1797 23.2969 41.1797C24.8438 41.1797 26.3672 41.1797 27.7969 40.9688M41.1797 23.2969V12.0937M43.4531 54.5625H43.3125C40.1484 53.6082 37.3746 51.6628 35.3998 49.0128C33.425 46.3628 32.3537 43.1486 32.3438 39.8438V30.9844L43.4297 27.7734L54.7266 30.9844V39.7734C54.7203 43.1314 53.6148 46.395 51.5791 49.0655C49.5434 51.7361 46.6894 53.6667 43.4531 54.5625Z" stroke="white" stroke-width="2" stroke-miterlimit="10"/>
</svg>
