<svg width="60" height="60" viewBox="0 0 60 60" fill="none" xmlns="http://www.w3.org/2000/svg">
<path d="M42.0125 36.6419L28.2727 52.0992L21.4028 46.9469M46.1694 47.1124C49.0327 47.0952 51.7906 46.0285 53.9206 44.1145C56.0501 42.2006 57.4044 39.5721 57.7267 36.7268C58.0486 33.8814 57.3161 31.0168 55.6679 28.6752C54.0196 26.3337 51.5699 24.6778 48.7824 24.0212C48.59 23.9637 48.4181 23.8524 48.2866 23.7003C48.1554 23.5483 48.0701 23.3618 48.0414 23.163C47.6969 19.3869 46.0683 15.8431 43.427 13.1225C40.7859 10.4018 37.2919 8.66892 33.5277 8.21266C29.7635 7.75636 25.9566 8.60433 22.7419 10.6152C19.5272 12.626 17.099 15.6781 15.8623 19.2625C15.7805 19.4297 15.6525 19.5699 15.4935 19.6667C15.3345 19.7634 15.1512 19.8127 14.9651 19.8086C13.1724 19.9289 11.4209 20.4013 9.81063 21.1985C8.20036 21.9958 6.76293 23.1024 5.58037 24.4553C3.19204 27.1874 1.98688 30.7563 2.22998 34.377C2.47309 37.9977 4.14454 41.3735 6.87663 43.7618C8.8649 45.4997 11.2963 46.6114 13.8684 46.9941" stroke="white" stroke-width="2" stroke-linecap="round" stroke-linejoin="round"/>
</svg>
