<svg width="60" height="60" viewBox="0 0 60 60" fill="none" xmlns="http://www.w3.org/2000/svg">
<path d="M36.4373 24.2725C36.962 24.1001 37.2476 23.535 37.0752 23.0103C36.9029 22.4856 36.3378 22.2 35.8131 22.3724L36.4373 24.2725ZM24.9384 26.9974L24.2313 27.7045C24.4981 27.9713 24.8922 28.0652 25.2505 27.9475L24.9384 26.9974ZM22.6502 24.7092L21.9968 23.9521C21.7864 24.1337 21.6611 24.3947 21.6509 24.6725C21.6407 24.9503 21.7465 25.2197 21.9431 25.4163L22.6502 24.7092ZM32.7737 15.9724V14.9724C32.5338 14.9724 32.3019 15.0587 32.1203 15.2154L32.7737 15.9724ZM37.3502 15.9724L37.7974 15.078C37.6586 15.0086 37.5054 14.9724 37.3502 14.9724V15.9724ZM44.7002 19.6474L44.253 20.5419C44.3325 20.5816 44.4169 20.6106 44.5041 20.628L44.7002 19.6474ZM50.8252 20.8724H51.8252C51.8252 20.3958 51.4887 19.9853 51.0213 19.8919L50.8252 20.8724ZM50.8252 36.7974L51.0677 37.7676C51.5129 37.6563 51.8252 37.2563 51.8252 36.7974H50.8252ZM45.9252 38.0224V39.0224C46.007 39.0224 46.0884 39.0124 46.1677 38.9926L45.9252 38.0224ZM34.5914 37.0224C34.0392 37.0224 33.5914 37.4701 33.5914 38.0224C33.5914 38.5747 34.0392 39.0224 34.5914 39.0224V37.0224ZM15.5379 35.5724L16.245 34.8652C16.1036 34.724 15.9232 34.6283 15.727 34.5905L15.5379 35.5724ZM25.2202 45.2524L24.5132 45.9596C24.7428 46.1892 25.0697 46.293 25.3897 46.238L25.2202 45.2524ZM29.4072 44.5322L29.5767 45.5177C29.994 45.4459 30.3209 45.1191 30.3927 44.7018L29.4072 44.5322ZM30.1277 40.3452L29.9575 39.3598C29.5405 39.4318 29.2139 39.7585 29.1422 40.1756L30.1277 40.3452ZM34.3147 39.6222L34.4849 40.6076C34.9017 40.5356 35.2282 40.2091 35.3001 39.7923L34.3147 39.6222ZM35.0374 35.4352L34.8678 34.4497C34.4507 34.5215 34.124 34.848 34.052 35.2651L35.0374 35.4352ZM39.2219 34.7149L39.3916 35.7004C39.8087 35.6287 40.1354 35.3021 40.2074 34.885L39.2219 34.7149ZM39.9447 30.5279L40.9301 30.698C40.9854 30.3778 40.8816 30.0506 40.6518 29.8208L39.9447 30.5279ZM24.1642 14.7474L24.8713 14.0403C24.5852 13.7542 24.1549 13.6687 23.7812 13.8237L24.1642 14.7474ZM15.3002 18.4224L15.4963 19.403C15.5603 19.3902 15.6229 19.3712 15.6832 19.3462L15.3002 18.4224ZM9.1752 15.9724H10.1752C10.1752 15.4202 9.72748 14.9724 9.1752 14.9724V15.9724ZM1.8252 15.9724V14.9724C1.27291 14.9724 0.825195 15.4202 0.825195 15.9724H1.8252ZM1.8252 38.0224H0.825195C0.825195 38.5747 1.27291 39.0224 1.8252 39.0224L1.8252 38.0224ZM9.1752 38.0224V39.0224C9.72748 39.0224 10.1752 38.5747 10.1752 38.0224H9.1752ZM58.1752 18.4224H59.1752C59.1752 17.8702 58.7275 17.4224 58.1752 17.4224V18.4224ZM50.8252 18.4224V17.4224C50.2729 17.4224 49.8252 17.8702 49.8252 18.4224H50.8252ZM50.8252 40.4724H49.8252C49.8252 41.0247 50.2729 41.4724 50.8252 41.4724V40.4724ZM58.1752 40.4724V41.4724C58.7275 41.4724 59.1752 41.0247 59.1752 40.4724H58.1752ZM35.8131 22.3724L24.6263 26.0474L25.2505 27.9475L36.4373 24.2725L35.8131 22.3724ZM25.6456 26.2903L23.3573 24.0021L21.9431 25.4163L24.2313 27.7045L25.6456 26.2903ZM23.3035 25.4662L33.427 16.7295L32.1203 15.2154L21.9968 23.9521L23.3035 25.4662ZM32.7737 16.9724H37.3502V14.9724H32.7737V16.9724ZM36.903 16.8669L44.253 20.5419L45.1474 18.753L37.7974 15.078L36.903 16.8669ZM44.5041 20.628L50.6291 21.853L51.0213 19.8919L44.8963 18.6669L44.5041 20.628ZM49.8252 20.8724V36.7974H51.8252V20.8724H49.8252ZM50.5827 35.8273L45.6827 37.0523L46.1677 38.9926L51.0677 37.7676L50.5827 35.8273ZM45.9252 37.0224H34.5914V39.0224H45.9252V37.0224ZM8.98614 35.3294L15.3489 36.5544L15.727 34.5905L9.36425 33.3655L8.98614 35.3294ZM14.8309 36.2796L24.5132 45.9596L25.9272 44.5452L16.245 34.8652L14.8309 36.2796ZM25.3897 46.238L29.5767 45.5177L29.2377 43.5467L25.0507 44.2669L25.3897 46.238ZM30.3927 44.7018L31.1132 40.5148L29.1422 40.1756L28.4217 44.3626L30.3927 44.7018ZM30.2979 41.3306L34.4849 40.6076L34.1445 38.6368L29.9575 39.3598L30.2979 41.3306ZM35.3001 39.7923L36.0229 35.6053L34.052 35.2651L33.3293 39.4521L35.3001 39.7923ZM35.2071 36.4207L39.3916 35.7004L39.0523 33.7294L34.8678 34.4497L35.2071 36.4207ZM40.2074 34.885L40.9301 30.698L38.9593 30.3578L38.2365 34.5448L40.2074 34.885ZM40.6518 29.8208L34.2843 23.4533L32.8701 24.8675L39.2376 31.235L40.6518 29.8208ZM29.5166 18.6856L24.8713 14.0403L23.4571 15.4545L28.1023 20.0998L29.5166 18.6856ZM23.7812 13.8237L14.9172 17.4987L15.6832 19.3462L24.5472 15.6712L23.7812 13.8237ZM15.1041 17.4419L8.97908 18.6669L9.37131 20.628L15.4963 19.403L15.1041 17.4419ZM9.1752 14.9724H1.8252V16.9724H9.1752V14.9724ZM0.825195 15.9724V38.0224H2.8252V15.9724H0.825195ZM1.8252 39.0224H9.1752V37.0224H1.8252V39.0224ZM10.1752 38.0224V15.9724H8.1752V38.0224H10.1752ZM58.1752 17.4224H50.8252V19.4224H58.1752V17.4224ZM49.8252 18.4224V40.4724H51.8252V18.4224H49.8252ZM50.8252 41.4724H58.1752V39.4724H50.8252V41.4724ZM59.1752 40.4724V18.4224H57.1752V40.4724H59.1752Z" fill="white"/>
</svg>
