<svg width="60" height="60" viewBox="0 0 60 60" fill="none" xmlns="http://www.w3.org/2000/svg">
<path d="M24.3075 47.51L35.21 10.5725M8.415 28.3675C9.2475 27.535 12.415 25.8675 18.415 25.8675C27.165 25.8675 33.415 34.6175 39.665 34.6175C44.2925 34.6175 48.8325 33.785 50.915 33.3675M46.25 51.25L56.25 13.75C54.1675 14.1675 49 15 45 15C38.75 15 32.5 6.25 23.75 6.25C17.75 6.25 14.5825 7.9175 13.75 8.75L3.75 46.25C4.5825 45.4175 7.75 43.75 13.75 43.75C22.5 43.75 28.75 52.5 35 52.5C39 52.5 44.1675 51.6675 46.25 51.25Z" stroke="white" stroke-width="2" stroke-linejoin="round"/>
</svg>
