<svg width="60" height="60" viewBox="0 0 60 60" fill="none" xmlns="http://www.w3.org/2000/svg">
<path d="M23.75 26.25V20C23.75 18.3424 24.4085 16.7527 25.5806 15.5806C26.7527 14.4085 28.3424 13.75 30 13.75C31.6576 13.75 33.2473 14.4085 34.4194 15.5806C35.5915 16.7527 36.25 18.3424 36.25 20V26.25M26.25 38.75H33.75C35.8488 38.75 36.8982 38.75 37.7102 38.366C38.5468 37.9703 39.2203 37.2968 39.616 36.4602C40 35.6482 40 34.5988 40 32.5V32.5C40 30.4012 40 29.3518 39.616 28.5398C39.2203 27.7032 38.5468 27.0297 37.7102 26.634C36.8982 26.25 35.8488 26.25 33.75 26.25H26.25C24.1512 26.25 23.1018 26.25 22.2898 26.634C21.4532 27.0297 20.7797 27.7032 20.384 28.5398C20 29.3518 20 30.4012 20 32.5V32.5C20 34.5988 20 35.6482 20.384 36.4602C20.7797 37.2968 21.4532 37.9703 22.2898 38.366C23.1018 38.75 24.1512 38.75 26.25 38.75ZM53.75 11.4V38.6361C53.75 40.0405 53.75 40.7427 53.5395 41.3657C53.3532 41.9167 53.0491 42.4205 52.6482 42.842C52.1949 43.3185 51.5735 43.6455 50.3308 44.2996L32.9808 53.4312C31.8902 54.0052 31.3449 54.2922 30.7703 54.4049C30.2616 54.5048 29.7384 54.5048 29.2297 54.4049C28.6551 54.2922 28.1098 54.0052 27.0192 53.4312L9.66922 44.2996C8.42646 43.6455 7.80507 43.3185 7.35182 42.842C6.95093 42.4205 6.64677 41.9167 6.46054 41.3657C6.25 40.7427 6.25 40.0405 6.25 38.6361V11.4C6.25 9.15979 6.25 8.03968 6.68597 7.18404C7.06947 6.43139 7.68139 5.81947 8.43404 5.43597C9.28968 5 10.4098 5 12.65 5H47.35C49.5902 5 50.7103 5 51.566 5.43597C52.3186 5.81947 52.9305 6.43139 53.314 7.18404C53.75 8.03968 53.75 9.15979 53.75 11.4Z" stroke="white" stroke-width="2"/>
</svg>
