<svg width="33" height="33" viewBox="0 0 33 33" fill="none" xmlns="http://www.w3.org/2000/svg">
<path d="M24.6731 12.0749V15.0972C24.1451 15.0456 23.4589 14.9256 22.6999 14.6475C21.7089 14.2841 20.9712 13.7873 20.488 13.4027V19.5112L20.4756 19.4921C20.4835 19.6133 20.488 19.7366 20.488 19.8611C20.488 22.8946 18.0204 25.364 14.9867 25.364C11.9529 25.364 9.48535 22.8946 9.48535 19.8611C9.48535 16.8276 11.9529 14.357 14.9867 14.357C15.2838 14.357 15.5753 14.3806 15.86 14.4266V17.4051C15.5865 17.3076 15.2927 17.2549 14.9867 17.2549C13.5505 17.2549 12.3812 18.4234 12.3812 19.8611C12.3812 21.2988 13.5505 22.4673 14.9867 22.4673C16.4228 22.4673 17.5921 21.2977 17.5921 19.8611C17.5921 19.8073 17.591 19.7534 17.5877 19.6996V7.8291H20.6068C20.618 8.08479 20.6281 8.34272 20.6393 8.59841C20.6595 9.10194 20.8389 9.58528 21.1517 9.98116C21.5183 10.4466 22.0598 10.9871 22.8199 11.4188C23.5318 11.8214 24.2 11.9953 24.6731 12.0771V12.0749Z" fill="#142835"/>
</svg>
