<svg width="34" height="33" viewBox="0 0 34 33" fill="none" xmlns="http://www.w3.org/2000/svg">
<path d="M24.4445 23.8078C23.953 23.8611 23.4499 23.8704 22.9678 23.8692C19.2065 23.8658 15.4452 23.8623 11.6851 23.86C10.5016 23.86 9.21272 23.8217 8.29819 23.0692C7.26775 22.2194 7.05332 20.7457 6.96987 19.4124C6.85396 17.5851 6.84468 15.752 6.93973 13.9236C6.99189 12.9195 7.08346 11.8911 7.5158 10.9821C7.82644 10.3293 8.34455 9.74262 9.00756 9.43421C9.77836 9.07594 10.5851 9.13971 11.415 9.13855C13.4017 9.13623 15.3884 9.13507 17.3751 9.13275C19.4406 9.13043 21.5073 9.12927 23.5728 9.12695C24.5488 9.12695 25.5966 9.14666 26.3929 9.71131C27.421 10.4394 27.7004 11.825 27.829 13.0783C28.0666 15.3868 28.0701 17.7196 27.8383 20.028C27.7421 20.9799 27.5821 21.9863 26.955 22.7086C26.3338 23.4252 25.4123 23.7011 24.4456 23.8066L24.4445 23.8078Z" fill="#142835"/>
<path d="M20.8061 16.4999L15.2007 13.2627V19.737L20.8061 16.4999Z" fill="white"/>
</svg>
