<svg width="34" height="33" viewBox="0 0 34 33" fill="none" xmlns="http://www.w3.org/2000/svg">
<path d="M8.64521 11.0825C8.21951 10.6872 8.00781 10.198 8.00781 9.61587C8.00781 9.03377 8.22065 8.52301 8.64521 8.12663C9.0709 7.73139 9.61888 7.5332 10.2903 7.5332C10.9616 7.5332 11.4881 7.73139 11.9127 8.12663C12.3384 8.52188 12.5501 9.01904 12.5501 9.61587C12.5501 10.2127 12.3372 10.6872 11.9127 11.0825C11.487 11.4777 10.9469 11.6759 10.2903 11.6759C9.6336 11.6759 9.0709 11.4777 8.64521 11.0825ZM12.1923 13.3497V25.4675H8.36443V13.3497H12.1923Z" fill="#142835"/>
<path d="M24.9353 14.5465C25.7697 15.4525 26.1864 16.696 26.1864 18.2792V25.2532H22.551V18.7707C22.551 17.9723 22.3438 17.3517 21.9306 16.91C21.5173 16.4684 20.9603 16.2464 20.2629 16.2464C19.5655 16.2464 19.0084 16.4672 18.5952 16.91C18.1819 17.3517 17.9748 17.9723 17.9748 18.7707V25.2532H14.3179V13.3155H17.9748V14.8987C18.345 14.371 18.8443 13.9542 19.4715 13.6473C20.0987 13.3404 20.8041 13.1875 21.5886 13.1875C22.9857 13.1875 24.102 13.6405 24.9353 14.5465Z" fill="#142835"/>
</svg>
