<svg width="33" height="33" viewBox="0 0 33 33" fill="none" xmlns="http://www.w3.org/2000/svg">
<path d="M21.4735 6.91406H11.4742C8.71171 6.91406 6.46436 9.16208 6.46436 11.9254V21.076C6.46436 23.8393 8.71171 26.0873 11.4742 26.0873H21.4735C24.236 26.0873 26.4833 23.8393 26.4833 21.076V11.9254C26.4833 9.16208 24.236 6.91406 21.4735 6.91406ZM8.23167 11.9254C8.23167 10.1372 9.6865 8.6819 11.4742 8.6819H21.4735C23.2612 8.6819 24.716 10.1372 24.716 11.9254V21.076C24.716 22.8642 23.2612 24.3195 21.4735 24.3195H11.4742C9.6865 24.3195 8.23167 22.8642 8.23167 21.076V11.9254Z" fill="#142835"/>
<path d="M16.474 21.1611C19.0429 21.1611 21.134 19.0705 21.134 16.4998C21.134 13.929 19.044 11.8384 16.474 11.8384C13.904 11.8384 11.814 13.929 11.814 16.4998C11.814 19.0705 13.904 21.1611 16.474 21.1611ZM16.474 13.6073C18.0692 13.6073 19.3667 14.9052 19.3667 16.5009C19.3667 18.0966 18.0692 19.3944 16.474 19.3944C14.8787 19.3944 13.5813 18.0966 13.5813 16.5009C13.5813 14.9052 14.8787 13.6073 16.474 13.6073Z" fill="#142835"/>
<path d="M21.5651 12.5915C22.2569 12.5915 22.8207 12.0286 22.8207 11.3355C22.8207 10.6424 22.258 10.0796 21.5651 10.0796C20.8723 10.0796 20.3096 10.6424 20.3096 11.3355C20.3096 12.0286 20.8723 12.5915 21.5651 12.5915Z" fill="#142835"/>
</svg>
