<svg width="20" height="20" viewBox="0 0 20 20" fill="none" xmlns="http://www.w3.org/2000/svg">
<path fill-rule="evenodd" clip-rule="evenodd" d="M10.0418 19.8283H10.0377C8.37898 19.8278 6.74917 19.4116 5.30162 18.622L0.0478516 20.0002L1.45385 14.8646C0.58656 13.3616 0.130199 11.6567 0.130943 9.90999C0.133117 4.44566 4.57902 0 10.0417 0C12.6929 0.00114423 15.1812 1.03325 17.0523 2.90656C18.9234 4.77978 19.9534 7.26975 19.9523 9.91781C19.9501 15.3809 15.506 19.8261 10.0418 19.8283ZM5.54468 16.8279L5.84548 17.0064C7.1102 17.7569 8.55994 18.154 10.0381 18.1546H10.0414C14.5816 18.1546 18.2768 14.4593 18.2786 9.91722C18.2795 7.71618 17.4235 5.64663 15.8683 4.0896C14.313 2.53258 12.2448 1.67468 10.0446 1.67392C5.50097 1.67392 1.80569 5.36886 1.80389 9.91055C1.80325 11.467 2.23875 12.9828 3.06332 14.2943L3.25917 14.606L2.42703 17.6457L5.54468 16.8279ZM14.6957 12.0515C14.8685 12.135 14.9851 12.1913 15.0349 12.2744C15.0968 12.3777 15.0968 12.8735 14.8905 13.452C14.6841 14.0305 13.6948 14.5584 13.219 14.6295C12.7924 14.6933 12.2525 14.7199 11.6593 14.5313C11.2996 14.4172 10.8384 14.2649 10.2476 14.0097C7.92605 13.0073 6.35719 10.7572 6.06068 10.332C6.03991 10.3022 6.02538 10.2814 6.01728 10.2705L6.01528 10.2679C5.88424 10.093 5.00613 8.92143 5.00613 7.70888C5.00613 6.56822 5.56644 5.97034 5.82435 5.69514C5.84202 5.67628 5.85827 5.65894 5.87283 5.64304C6.09981 5.39513 6.3681 5.33315 6.53318 5.33315C6.69824 5.33315 6.86351 5.33467 7.00779 5.34192C7.02559 5.34281 7.04411 5.3427 7.06325 5.34259C7.20756 5.34175 7.38747 5.34069 7.56495 5.767C7.63323 5.93107 7.73314 6.17431 7.83852 6.43085C8.0516 6.94961 8.28702 7.52276 8.32844 7.6057C8.39037 7.72966 8.43163 7.87422 8.34909 8.03956C8.3367 8.06435 8.32524 8.08775 8.31429 8.11011C8.25229 8.23667 8.20669 8.32978 8.10147 8.45263C8.06009 8.50094 8.01733 8.55302 7.97456 8.6051C7.88937 8.70885 7.80418 8.81259 7.73001 8.88649C7.60604 9.00997 7.47699 9.14395 7.62144 9.39186C7.76589 9.63978 8.26287 10.4507 8.99904 11.1073C9.79038 11.8132 10.4782 12.1115 10.8268 12.2627C10.8949 12.2922 10.95 12.3162 10.9905 12.3364C11.238 12.4604 11.3825 12.4397 11.5269 12.2744C11.6714 12.1092 12.146 11.5513 12.311 11.3035C12.4761 11.0556 12.6412 11.0969 12.8682 11.1795C13.0952 11.2622 14.3127 11.8612 14.5603 11.9852C14.6086 12.0094 14.6538 12.0312 14.6957 12.0515Z" fill="#FDFDFD"/>
</svg>
